<?xml version="1.0" encoding="UTF-8"?>
<svg version="1.1" xmlns="http://www.w3.org/2000/svg" width="500" height="500">
<path d="M0 0 C4.33725372 1.30632419 7.99109394 2.98936786 11.875 5.3125 C12.84179688 5.88613281 13.80859375 6.45976562 14.8046875 7.05078125 C15.85914063 7.69402344 16.91359375 8.33726562 18 9 C18.66809629 9.27343514 19.33619259 9.54687029 20.02453423 9.82859135 C22.48269434 10.97511804 24.128681 12.02220277 26 14 C27.24004966 18.29113822 27.11348886 22.51468672 27.06689453 26.95678711 C27.09274124 28.93315407 27.09274124 28.93315407 27.11911011 30.94944763 C27.16407211 34.55740475 27.15822872 38.16360646 27.14046717 41.77173686 C27.13023708 44.78624616 27.14484037 47.80042692 27.15941131 50.81490237 C27.19340097 57.92791979 27.18628877 65.0400791 27.15283203 72.15307617 C27.11898816 79.48559807 27.15065319 86.8157389 27.21527779 94.14800066 C27.26870371 100.44895897 27.28321355 106.74917678 27.26624763 113.0503388 C27.25639741 116.81136361 27.26076552 120.57095602 27.30182266 124.33180046 C27.34543346 128.52731313 27.307715 132.71832626 27.26220703 136.91381836 C27.28559143 138.15609192 27.30897583 139.39836548 27.33306885 140.67828369 C27.25806456 144.07271251 27.10603334 146.78825639 26 150 C22.98704951 152.84963511 19.78976998 154.39565107 16 156 C14.77992973 156.68084743 13.5688259 157.37823816 12.37109375 158.09765625 C9.28584967 159.83869202 6.1957667 161.57057615 3.10253906 163.29736328 C-2.34778486 166.34343948 -7.76585195 169.39667674 -13.02734375 172.76171875 C-35.1213722 186.63064354 -35.1213722 186.63064354 -42 188 C-42 188.66 -42 189.32 -42 190 C-42.82177734 190.38478516 -42.82177734 190.38478516 -43.66015625 190.77734375 C-49.83205908 193.75792121 -55.67743464 197.13962497 -61.52832031 200.69433594 C-65.59826854 203.16603965 -69.70033895 205.54192113 -73.88671875 207.8125 C-76.34888371 209.19604556 -78.72873695 210.69297911 -81.125 212.1875 C-85.10060547 214.57286328 -88.40388821 216.27904129 -93 217 C-95.5 216.375 -95.5 216.375 -98 215 C-99.7015625 214.071875 -99.7015625 214.071875 -101.4375 213.125 C-103.61006345 211.85960973 -105.668821 210.54398568 -107.75 209.125 C-110.44317684 207.36407668 -113.10678741 205.83029715 -115.9375 204.3125 C-121.33734209 201.4162884 -126.57177704 198.28817682 -131.78491211 195.0715332 C-135.10417818 193.04547619 -138.3347192 191.31002432 -142 190 C-142 189.34 -142 188.68 -142 188 C-142.804375 187.773125 -143.60875 187.54625 -144.4375 187.3125 C-148.94200188 185.65294667 -152.86028204 183.41718866 -157 181 C-157.60279785 180.64873047 -158.2055957 180.29746094 -158.82666016 179.93554688 C-167.22700028 175.03483713 -175.59018692 170.07263333 -183.91455078 165.04394531 C-186.79162151 163.30903651 -189.68121863 161.60209475 -192.6015625 159.94140625 C-196.36909138 157.78915125 -200.06735506 155.53788005 -203.765625 153.26953125 C-206.0519145 151.87507729 -206.0519145 151.87507729 -209 151 C-210.15352646 148.69294708 -210.12900617 147.35398201 -210.1328125 144.7890625 C-210.13410156 143.95632813 -210.13539063 143.12359375 -210.13671875 142.265625 C-210.13285156 141.39421875 -210.12898437 140.5228125 -210.125 139.625 C-210.12886719 138.76132812 -210.13273438 137.89765625 -210.13671875 137.0078125 C-210.13542969 136.1725 -210.13414062 135.3371875 -210.1328125 134.4765625 C-210.13168457 133.71424316 -210.13055664 132.95192383 -210.12939453 132.16650391 C-210 130 -210 130 -209 126 C-203.06 126.33 -197.12 126.66 -191 127 C-191.20625 128.77375 -191.4125 130.5475 -191.625 132.375 C-191.3667634 135.85094664 -191.03480344 138.09022894 -188.34716797 140.453125 C-183.86188717 143.39887205 -179.02690775 145.67940129 -174.17578125 147.95410156 C-171.52984921 149.22600157 -169.04915692 150.69180264 -166.5625 152.25 C-163.17839373 154.31903907 -159.74299789 156.24523407 -156.25 158.125 C-152.34344921 160.22894881 -148.69235954 162.53842698 -145 165 C-142.36351322 166.39777178 -139.69304134 167.7149955 -137 169 C-137 169.66 -137 170.32 -137 171 C-136.27167969 171.10957031 -135.54335937 171.21914063 -134.79296875 171.33203125 C-131.8272706 172.04131011 -129.8838374 173.06819496 -127.3125 174.6875 C-126.44753906 175.22375 -125.58257812 175.76 -124.69140625 176.3125 C-123.80324219 176.869375 -122.91507812 177.42625 -122 178 C-116.74851258 181.20795707 -111.5320605 184.29543709 -106 187 C-102.4266733 188.9379369 -99.11968713 190.90903778 -95.875 193.375 C-94.92625 193.91125 -93.9775 194.4475 -93 195 C-89.35683152 193.90164772 -86.28141327 192.06097222 -83.0625 190.0625 C-80.43815581 188.43632159 -77.84869825 186.92485549 -75.08203125 185.55078125 C-71.80814003 183.90346209 -68.73627667 182.06107289 -65.625 180.125 C-65.05918213 179.77566406 -64.49336426 179.42632812 -63.91040039 179.06640625 C-61.42631584 177.52966911 -58.95940836 175.97327983 -56.51953125 174.3671875 C-52.9732958 172.03851507 -51.35658588 171 -47 171 C-47 170.34 -47 169.68 -47 169 C-45.71086513 168.32845067 -44.41859796 167.66291141 -43.125 167 C-42.40570313 166.62875 -41.68640625 166.2575 -40.9453125 165.875 C-39 165 -39 165 -37 165 C-37 164.34 -37 163.68 -37 163 C-36.32195312 162.63648438 -35.64390625 162.27296875 -34.9453125 161.8984375 C-30.25193792 159.36323517 -25.60759092 156.79356808 -21.0625 154 C-17.43760384 151.79053948 -13.75539557 149.85578721 -9.9375 148 C-5.24548647 145.71150824 -0.98762898 143.1340207 3.2578125 140.1015625 C5 139 5 139 7 139 C6.67 101.38 6.34 63.76 6 25 C3.03 23.35 0.06 21.7 -3 20 C-5.33333333 18.66666667 -7.66666667 17.33333333 -10 16 C-10.99 15.505 -10.99 15.505 -12 15 C-12 11 -12 11 -10.390625 9.21875 C-9.68421875 8.6515625 -8.9778125 8.084375 -8.25 7.5 C-7.52296875 6.90058594 -6.7959375 6.30117187 -6.046875 5.68359375 C-5.37140625 5.12800781 -4.6959375 4.57242188 -4 4 C-2.64989719 2.68364976 -1.30585054 1.36026098 0 0 Z " fill="#244573" transform="translate(342,184)"/>
<path d="M0 0 C-0.51239418 5.39486291 -1.4340209 9.71588594 -3.5625 14.75 C-4.10259508 16.03863021 -4.64159435 17.32772006 -5.1796875 18.6171875 C-5.61619629 19.65504395 -5.61619629 19.65504395 -6.06152344 20.71386719 C-7.10495247 23.25566464 -8.09055166 25.81582093 -9.0703125 28.3828125 C-9.42150146 29.29321289 -9.77269043 30.20361328 -10.13452148 31.14160156 C-10.82933732 32.94525519 -11.51652487 34.75186841 -12.19555664 36.56152344 C-12.51645264 37.38426758 -12.83734863 38.20701172 -13.16796875 39.0546875 C-13.58985474 40.16046143 -13.58985474 40.16046143 -14.02026367 41.28857422 C-15 43 -15 43 -18 44 C-18.508783 42.44033782 -19.00663469 40.87710759 -19.5 39.3125 C-19.91765625 38.00732422 -19.91765625 38.00732422 -20.34375 36.67578125 C-20.99850805 34.00608323 -21.11831495 31.73603316 -21 29 C-24.62479835 30.03685307 -24.62479835 30.03685307 -27 32.75 C-27.33 33.4925 -27.66 34.235 -28 35 C-31.10600353 38.94546394 -34.40133189 42.49129859 -38 46 C-40.43919256 48.37970005 -42.74421621 50.66483503 -44.8125 53.375 C-47.32035056 56.38442068 -50.12281703 58.75488361 -53.1015625 61.28515625 C-55.35258021 63.31848294 -57.12665688 65.62229527 -59 68 C-59.66 68 -60.32 68 -61 68 C-61.20625 68.53625 -61.4125 69.0725 -61.625 69.625 C-63.53250426 72.91978009 -66.04819384 75.59363628 -69 78 C-69.66 78 -70.32 78 -71 78 C-71.33 78.99 -71.66 79.98 -72 81 C-73.6015625 82.54296875 -73.6015625 82.54296875 -75.625 84.1875 C-78.53848315 86.64915956 -81.1011697 89.14908863 -83.5625 92.0625 C-86.69538276 95.7486671 -90.01406006 99.22351413 -94 102 C-94.66 102 -95.32 102 -96 102 C-96.3403125 102.8353125 -96.3403125 102.8353125 -96.6875 103.6875 C-98.38617978 106.68041199 -100.42072687 108.73527237 -103 111 C-103.99 111 -104.98 111 -106 111 C-106.268125 111.639375 -106.53625 112.27875 -106.8125 112.9375 C-108 115 -108 115 -111 116 C-111.29390625 116.598125 -111.5878125 117.19625 -111.890625 117.8125 C-113.34836237 120.68691171 -115.21339182 122.01874391 -117.75 124 C-121.54368988 127.01524443 -125.26549263 130.0707999 -128.91552734 133.25805664 C-136.77173097 140.11456341 -144.9625397 146.48052736 -153.30957031 152.72705078 C-154.67641877 153.75633268 -156.0248369 154.81006085 -157.3671875 155.87109375 C-159 157 -159 157 -161 157 C-161.33 157.99 -161.66 158.98 -162 160 C-164.12069307 161.52194385 -166.21233556 162.89899698 -168.4375 164.25 C-169.71734893 165.04494128 -170.99598778 165.84183395 -172.2734375 166.640625 C-172.90604492 167.03572266 -173.53865234 167.43082031 -174.19042969 167.83789062 C-177.50767279 169.96823023 -180.66178403 172.3256338 -183.81640625 174.6875 C-186.22396025 176.13461654 -188.2347544 176.61121327 -191 177 C-191 177.66 -191 178.32 -191 179 C-233.49265185 201.61270123 -233.49265185 201.61270123 -252 202 C-253.16144531 202.03867187 -254.32289063 202.07734375 -255.51953125 202.1171875 C-270.59652352 202.39214785 -282.27451795 200.51003348 -294.1875 190.75 C-295.115625 189.8425 -296.04375 188.935 -297 188 C-297 187.34 -297 186.68 -297 186 C-298.32 185.34 -299.64 184.68 -301 184 C-301 183.01 -301 182.02 -301 181 C-301.66 181 -302.32 181 -303 181 C-309.2482564 171.98584877 -313 159.95640975 -313 149 C-312.34 149 -311.68 149 -311 149 C-311 149.66 -311 150.32 -311 151 C-310.01 151.33 -309.02 151.66 -308 152 C-306.67578125 153.63671875 -306.67578125 153.63671875 -305.3125 155.6875 C-302.11580443 160.12162611 -298.48476404 162.94926438 -294 166 C-293.113125 166.70125 -292.22625 167.4025 -291.3125 168.125 C-273.36282803 178.28519168 -252.74270021 175.96189296 -233.70703125 170.86328125 C-225.19399489 168.50422429 -217.06590532 165.62784347 -209 162 C-208.29488281 161.69578125 -207.58976562 161.3915625 -206.86328125 161.078125 C-204.56247227 160.07891653 -202.28088524 159.04402036 -200 158 C-199.36868164 157.7122168 -198.73736328 157.42443359 -198.08691406 157.12792969 C-190.10588844 153.47769316 -182.31260503 149.87986832 -175 145 C-173.00368842 143.76485192 -171.00321703 142.53641675 -169 141.3125 C-165.24469464 139.00930454 -161.50206926 136.69052327 -157.78125 134.33203125 C-157.0696875 133.88239014 -156.358125 133.43274902 -155.625 132.96948242 C-154.2374113 132.09155837 -152.85189267 131.21035153 -151.46875 130.32543945 C-148.06541889 128.17562861 -144.82353438 126.33823703 -141 125 C-141 124.34 -141 123.68 -141 123 C-138.7557403 121.43761577 -136.51852162 119.9840787 -134.1875 118.5625 C-132.90792168 117.77575827 -131.63050132 116.98549389 -130.35546875 116.19140625 C-129.78465576 115.84279541 -129.21384277 115.49418457 -128.62573242 115.13500977 C-126.8712096 113.91008461 -125.49235946 112.52925093 -124 111 C-122.0608904 109.47523005 -120.10020652 107.97771061 -118.125 106.5 C-117.09632813 105.7265625 -116.06765625 104.953125 -115.0078125 104.15625 C-112 102 -112 102 -109.3046875 100.40625 C-107.13986738 99.08534281 -105.7660133 97.78816809 -104 96 C-101.73402617 94.08743168 -99.39440044 92.26884802 -97.0625 90.4375 C-96.44181641 89.94314453 -95.82113281 89.44878906 -95.18164062 88.93945312 C-92.23961634 86.62405808 -89.47549123 84.47207523 -86 83 C-86 82.34 -86 81.68 -86 81 C-85.443125 80.773125 -84.88625 80.54625 -84.3125 80.3125 C-81.95975867 78.97716032 -80.38553301 77.40445458 -78.50512695 75.48657227 C-75.60710742 72.62427852 -72.51207982 69.98197294 -69.4375 67.3125 C-68.77814453 66.73177734 -68.11878906 66.15105469 -67.43945312 65.55273438 C-66.79814453 64.99521484 -66.15683594 64.43769531 -65.49609375 63.86328125 C-64.63262329 63.10978394 -64.63262329 63.10978394 -63.75170898 62.34106445 C-61.92172047 60.94007115 -60.08899427 59.96276384 -58 59 C-58 58.34 -58 57.68 -58 57 C-56.3214487 55.50370821 -54.58041102 54.07707339 -52.8125 52.6875 C-48.10984258 48.97951443 -43.92450774 45.03447961 -39.8125 40.6875 C-38 39 -38 39 -36 39 C-35.67 38.01 -35.34 37.02 -35 36 C-33.57775971 34.76739175 -32.15274207 33.53542634 -30.66796875 32.37890625 C-28.66047425 30.71931478 -26.84177605 28.84177605 -25 27 C-30.61 26.34 -36.22 25.68 -42 25 C-42 23.68 -42 22.36 -42 21 C-41.30551758 20.64284912 -40.61103516 20.28569824 -39.89550781 19.91772461 C-36.6786177 18.26096748 -33.46430949 16.59925796 -30.25 14.9375 C-29.15816406 14.37611328 -28.06632812 13.81472656 -26.94140625 13.23632812 C-20.32167749 9.80895377 -13.84512561 6.21982971 -7.45214844 2.38500977 C-4.93000773 0.96046733 -2.92830617 0 0 0 Z " fill="#F48A2E" transform="translate(406,99)"/>
<path d="M0 0 C2.7629894 1.3521012 5.30683183 2.84458507 7.9375 4.4375 C10.68374752 6.06886599 13.43538877 7.69104957 16.1875 9.3125 C16.94458252 9.75867676 17.70166504 10.20485352 18.48168945 10.66455078 C22.33690881 12.93037756 26.20143685 15.16627742 30.125 17.3125 C33.52913506 19.17464682 36.71857353 21.26822347 39.9375 23.4375 C43.14404447 25.37021173 46.38607232 27.16791313 49.75 28.8125 C55.34704639 31.6658962 60.71148786 34.95349191 65.9375 38.4375 C65.9375 40.4375 65.9375 40.4375 64.125 42.5 C61.9375 44.4375 61.9375 44.4375 58.9375 45.4375 C58.256875 46.118125 57.57625 46.79875 56.875 47.5 C56.235625 48.139375 55.59625 48.77875 54.9375 49.4375 C54.2775 49.4375 53.6175 49.4375 52.9375 49.4375 C52.9375 50.0975 52.9375 50.7575 52.9375 51.4375 C49.37969804 50.82759109 46.2546411 49.8591319 42.9375 48.4375 C42.9375 47.7775 42.9375 47.1175 42.9375 46.4375 C41.7309375 46.0971875 41.7309375 46.0971875 40.5 45.75 C32.68713181 42.87157488 25.71520612 38.10953604 18.61010742 33.82177734 C13.1425761 30.53395841 7.63862336 27.30687727 1.9375 24.4375 C1.10863281 24.00308594 0.27976562 23.56867188 -0.57421875 23.12109375 C-3.06272435 22.17111902 -3.06272435 22.17111902 -5.38671875 23.34375 C-6.16660156 23.8696875 -6.94648438 24.395625 -7.75 24.9375 C-8.62269531 25.5046875 -9.49539062 26.071875 -10.39453125 26.65625 C-11.27496094 27.2440625 -12.15539062 27.831875 -13.0625 28.4375 C-19.29515079 32.3341493 -25.63729168 35.75675668 -32.234375 38.99609375 C-37.01052037 41.43034464 -41.43471198 44.29064935 -45.8125 47.375 C-49.7775642 49.89129074 -53.91912324 51.8663769 -58.16015625 53.875 C-61.10316388 55.34668311 -61.10316388 55.34668311 -63.55859375 57.4375 C-66.26322319 59.59782804 -68.94585533 60.94485409 -72.0625 62.4375 C-74.05116489 63.5667682 -76.03035148 64.71288149 -78 65.875 C-79.04671875 66.48988281 -80.0934375 67.10476562 -81.171875 67.73828125 C-82.12578125 68.29902344 -83.0796875 68.85976562 -84.0625 69.4375 C-90.79209336 73.33701243 -90.79209336 73.33701243 -93.31738281 74.27545166 C-96.00175908 75.39945868 -97.92249909 76.45210956 -100.0625 78.4375 C-101.39103494 82.58006338 -101.22694954 86.60287446 -101.125 90.921875 C-101.13208984 92.13321106 -101.13917969 93.34454712 -101.14648438 94.59259033 C-101.16044507 98.45889236 -101.11294421 102.32155159 -101.0625 106.1875 C-101.05434919 110.06680451 -101.05844972 113.94595075 -101.06420898 117.82525635 C-101.06308158 120.239146 -101.05111084 122.6530582 -101.02758789 125.0668335 C-101.01848389 126.15176086 -101.00937988 127.23668823 -101 128.35449219 C-100.98839844 129.31425964 -100.97679687 130.2740271 -100.96484375 131.26287842 C-101.0625 133.4375 -101.0625 133.4375 -102.0625 134.4375 C-104.3523821 134.53706009 -106.64545937 134.5671872 -108.9375 134.5625 C-110.19304687 134.56507813 -111.44859375 134.56765625 -112.7421875 134.5703125 C-116.0625 134.4375 -116.0625 134.4375 -119.0625 133.4375 C-122.53295991 126.49658017 -120.70281336 114.50672402 -120.81818962 106.6540432 C-120.87475875 102.85886409 -120.95616946 99.06792807 -121.09814453 95.27490234 C-121.23503791 91.60221554 -121.30708704 87.93336734 -121.33484268 84.25828934 C-121.35622934 82.86323832 -121.40010523 81.46833255 -121.467556 80.07474899 C-121.67517376 75.57715512 -121.5984289 71.69131364 -120.0625 67.4375 C-116.10504214 63.76424144 -111.9772062 61.69310241 -107.0625 59.4375 C-105.07687596 58.36604819 -103.0964557 57.28480316 -101.125 56.1875 C-100.23425781 55.71054688 -99.34351563 55.23359375 -98.42578125 54.7421875 C-95.51966085 53.1378169 -92.80405713 51.3067435 -90.0625 49.4375 C-85.81966069 46.98029736 -81.54432758 44.58309883 -77.26513672 42.18994141 C-71.14812032 38.76755447 -65.0883826 35.28106639 -59.09765625 31.640625 C-56.4861009 30.09674967 -53.78712801 28.76954036 -51.0625 27.4375 C-44.25171593 23.63917811 -37.55655878 19.63226054 -30.953125 15.484375 C-24.66087067 11.54042612 -18.35236893 7.97036766 -11.65234375 4.765625 C-9.44403203 3.63315745 -7.63425664 2.45445323 -5.6875 0.9375 C-3.0625 -0.5625 -3.0625 -0.5625 0 0 Z " fill="#254674" transform="translate(252.0625,130.5625)"/>
<path d="M0 0 C0.21034841 16.32453968 0.36899937 32.6486391 0.46630955 48.97420692 C0.51269603 56.55471756 0.57592067 64.13438568 0.67895508 71.71435547 C0.76872998 78.32201495 0.82673943 84.92906429 0.84679645 91.53731668 C0.85851988 95.03595739 0.88601381 98.53285286 0.95157051 102.03093338 C1.02420437 105.93843242 1.02590498 109.84423265 1.02172852 113.75244141 C1.054086 114.90906281 1.08644348 116.0656842 1.11978149 117.25735474 C1.03083106 124.93902336 1.03083106 124.93902336 -1.96272469 128.02012253 C-4.250355 129.56612739 -6.51121002 130.81183016 -9 132 C-10.02867187 132.6290625 -11.05734375 133.258125 -12.1171875 133.90625 C-30.46703735 144.51069581 -30.46703735 144.51069581 -37 147 C-38.57525294 145.42474706 -38.13574621 143.84966012 -38.14717102 141.66143799 C-38.15432632 140.72490387 -38.16148163 139.78836975 -38.16885376 138.82345581 C-38.17154266 137.7876236 -38.17423157 136.75179138 -38.17700195 135.68457031 C-38.18357315 134.60005585 -38.19014435 133.51554138 -38.19691467 132.39816284 C-38.21670485 128.79148295 -38.22832327 125.18484482 -38.23828125 121.578125 C-38.24439454 119.73539127 -38.24439454 119.73539127 -38.25063133 117.8554306 C-38.26936026 112.02431154 -38.28391992 106.193209 -38.2922433 100.36206555 C-38.30201068 93.63013676 -38.32831267 86.89853723 -38.36874419 80.16672444 C-38.4025516 74.33775341 -38.41438918 68.50889274 -38.41844749 62.67983246 C-38.42332778 60.19987507 -38.43498245 57.71992155 -38.45348549 55.24002838 C-38.47776027 51.77075334 -38.47693274 48.30234128 -38.4699707 44.83300781 C-38.48278076 43.80527252 -38.49559082 42.77753723 -38.50878906 41.71865845 C-38.4575953 34.73083957 -38.4575953 34.73083957 -36.07267761 30.92181396 C-35.388694 30.28761536 -34.70471039 29.65341675 -34 29 C-33.46117187 28.47792969 -32.92234375 27.95585937 -32.3671875 27.41796875 C-28.22222222 24 -28.22222222 24 -26 24 C-25.77183594 23.42378906 -25.54367187 22.84757812 -25.30859375 22.25390625 C-23.64866251 19.3948605 -21.68326146 17.94913182 -19.0625 15.9375 C-13.67941186 11.67648036 -8.95602006 7.04869243 -4.21484375 2.08984375 C-2 0 -2 0 0 0 Z " fill="#1F4272" transform="translate(321,206)"/>
<path d="M0 0 C0.99 0 1.98 0 3 0 C3.21041473 14.23826305 3.36843307 28.47628446 3.46630955 42.71578407 C3.51328552 49.32783543 3.57700338 55.93884263 3.67895508 62.55029297 C3.77672606 68.93053826 3.83055454 75.30977922 3.85389519 81.69071579 C3.87052856 84.12532747 3.90301103 86.55988396 3.95157051 88.99406815 C4.01689742 92.40431814 4.02590313 95.81041666 4.02172852 99.22119141 C4.054086 100.22820099 4.08644348 101.23521057 4.11978149 102.2727356 C4.03073449 108.99377323 4.03073449 108.99377323 1.02189445 111.93107224 C-1.26061753 113.46431664 -3.5522508 114.75278044 -6 116 C-6.88429688 116.62390625 -7.76859375 117.2478125 -8.6796875 117.890625 C-11.16327826 119.42850682 -13.12478399 120.42323511 -16 121 C-20.18636858 119.7253794 -23.43332681 117.48586313 -27 115 C-27.65575012 114.79135315 -28.31150024 114.5827063 -28.98712158 114.36773682 C-31.76958645 113.28105058 -33.11461335 112.34947074 -35 110 C-36.30606915 103.82713518 -36.17558638 97.67055587 -36.1328125 91.3828125 C-36.14328581 89.52341466 -36.15583909 87.66402747 -36.17037964 85.80465698 C-36.19118884 81.90881336 -36.18207112 78.01443054 -36.15283203 74.11865234 C-36.11848247 69.13491672 -36.16539098 64.15579871 -36.23581123 59.17257881 C-36.27982505 55.33232289 -36.27686199 51.49316618 -36.26028061 47.65273666 C-36.25864432 45.8163535 -36.27232028 43.9798885 -36.30182266 42.14374161 C-36.49621843 27.85241882 -36.49621843 27.85241882 -32.83001709 23.31341553 C-29.09159373 20.59801856 -25.51812334 18.94605531 -21 18 C-21 17.34 -21 16.68 -21 16 C-19.05859375 14.484375 -19.05859375 14.484375 -16.4375 12.75 C-13.12253318 10.51028446 -10.03095105 8.24429805 -7.0625 5.5625 C-4 3 -4 3 -1 3 C-0.67 2.01 -0.34 1.02 0 0 Z " fill="#214372" transform="translate(266,252)"/>
<path d="M0 0 C-0.51239418 5.39486291 -1.4340209 9.71588594 -3.5625 14.75 C-4.10259508 16.03863021 -4.64159435 17.32772006 -5.1796875 18.6171875 C-5.47069336 19.3090918 -5.76169922 20.00099609 -6.06152344 20.71386719 C-7.10495247 23.25566464 -8.09055166 25.81582093 -9.0703125 28.3828125 C-9.42150146 29.29321289 -9.77269043 30.20361328 -10.13452148 31.14160156 C-10.82933732 32.94525519 -11.51652487 34.75186841 -12.19555664 36.56152344 C-12.51645264 37.38426758 -12.83734863 38.20701172 -13.16796875 39.0546875 C-13.58985474 40.16046143 -13.58985474 40.16046143 -14.02026367 41.28857422 C-15 43 -15 43 -18 44 C-18.508783 42.44033782 -19.00663469 40.87710759 -19.5 39.3125 C-19.91765625 38.00732422 -19.91765625 38.00732422 -20.34375 36.67578125 C-20.99850805 34.00608323 -21.11831495 31.73603316 -21 29 C-24.62479835 30.03685307 -24.62479835 30.03685307 -27 32.75 C-27.33 33.4925 -27.66 34.235 -28 35 C-31.10600353 38.94546394 -34.40133189 42.49129859 -38 46 C-40.43919256 48.37970005 -42.74421621 50.66483503 -44.8125 53.375 C-47.32035056 56.38442068 -50.12281703 58.75488361 -53.1015625 61.28515625 C-55.35258021 63.31848294 -57.12665688 65.62229527 -59 68 C-59.66 68 -60.32 68 -61 68 C-61.309375 68.804375 -61.309375 68.804375 -61.625 69.625 C-63.53250426 72.91978009 -66.04819384 75.59363628 -69 78 C-69.66 78 -70.32 78 -71 78 C-71.495 79.485 -71.495 79.485 -72 81 C-73.6015625 82.54296875 -73.6015625 82.54296875 -75.625 84.1875 C-78.53848315 86.64915956 -81.1011697 89.14908863 -83.5625 92.0625 C-86.69538276 95.7486671 -90.01406006 99.22351413 -94 102 C-94.66 102 -95.32 102 -96 102 C-96.226875 102.556875 -96.45375 103.11375 -96.6875 103.6875 C-98.38617978 106.68041199 -100.42072687 108.73527237 -103 111 C-103.99 111 -104.98 111 -106 111 C-106.268125 111.639375 -106.53625 112.27875 -106.8125 112.9375 C-108 115 -108 115 -111 116 C-111.29390625 116.598125 -111.5878125 117.19625 -111.890625 117.8125 C-113.34836237 120.68691171 -115.21339182 122.01874391 -117.75 124 C-122.4803106 127.76288984 -127.10806906 131.61721611 -131.6875 135.5625 C-132.62384277 136.3678418 -132.62384277 136.3678418 -133.57910156 137.18945312 C-135.05366676 138.45855289 -136.52697507 139.7291128 -138 141 C-139 138 -139 138 -138.0625 135.8125 C-137.711875 135.214375 -137.36125 134.61625 -137 134 C-135.68 134.33 -134.36 134.66 -133 135 C-132.67 134.01 -132.34 133.02 -132 132 C-131.34 132 -130.68 132 -130 132 C-130 130.68 -130 129.36 -130 128 C-129.34 128 -128.68 128 -128 128 C-127.67 126.35 -127.34 124.7 -127 123 C-128.65 123 -130.3 123 -132 123 C-132 123.66 -132 124.32 -132 125 C-132.7425 125.103125 -133.485 125.20625 -134.25 125.3125 C-137.03470084 125.80403856 -137.03470084 125.80403856 -138.9375 127.5625 C-141.69729715 129.48599498 -143.71355915 129.22407551 -147 129 C-147 129.66 -147 130.32 -147 131 C-148.32 130.67 -149.64 130.34 -151 130 C-149.71186658 129.16121545 -148.41936744 128.32913217 -147.125 127.5 C-146.04605469 126.80390625 -146.04605469 126.80390625 -144.9453125 126.09375 C-143 125 -143 125 -141 125 C-141 124.34 -141 123.68 -141 123 C-138.7557403 121.43761577 -136.51852162 119.9840787 -134.1875 118.5625 C-132.90792168 117.77575827 -131.63050132 116.98549389 -130.35546875 116.19140625 C-129.78465576 115.84279541 -129.21384277 115.49418457 -128.62573242 115.13500977 C-126.8712096 113.91008461 -125.49235946 112.52925093 -124 111 C-122.0608904 109.47523005 -120.10020652 107.97771061 -118.125 106.5 C-117.09632813 105.7265625 -116.06765625 104.953125 -115.0078125 104.15625 C-112 102 -112 102 -109.3046875 100.40625 C-107.13986738 99.08534281 -105.7660133 97.78816809 -104 96 C-101.73402617 94.08743168 -99.39440044 92.26884802 -97.0625 90.4375 C-96.44181641 89.94314453 -95.82113281 89.44878906 -95.18164062 88.93945312 C-92.23961634 86.62405808 -89.47549123 84.47207523 -86 83 C-86 82.34 -86 81.68 -86 81 C-85.443125 80.773125 -84.88625 80.54625 -84.3125 80.3125 C-81.95975867 78.97716032 -80.38553301 77.40445458 -78.50512695 75.48657227 C-75.60710742 72.62427852 -72.51207982 69.98197294 -69.4375 67.3125 C-68.77814453 66.73177734 -68.11878906 66.15105469 -67.43945312 65.55273438 C-66.79814453 64.99521484 -66.15683594 64.43769531 -65.49609375 63.86328125 C-64.92044678 63.36094971 -64.3447998 62.85861816 -63.75170898 62.34106445 C-61.92172047 60.94007115 -60.08899427 59.96276384 -58 59 C-58 58.34 -58 57.68 -58 57 C-56.3214487 55.50370821 -54.58041102 54.07707339 -52.8125 52.6875 C-48.10984258 48.97951443 -43.92450774 45.03447961 -39.8125 40.6875 C-38 39 -38 39 -36 39 C-35.67 38.01 -35.34 37.02 -35 36 C-33.57775971 34.76739175 -32.15274207 33.53542634 -30.66796875 32.37890625 C-28.66047425 30.71931478 -26.84177605 28.84177605 -25 27 C-30.61 26.34 -36.22 25.68 -42 25 C-42 23.68 -42 22.36 -42 21 C-41.30551758 20.64284912 -40.61103516 20.28569824 -39.89550781 19.91772461 C-36.6786177 18.26096748 -33.46430949 16.59925796 -30.25 14.9375 C-29.15816406 14.37611328 -28.06632812 13.81472656 -26.94140625 13.23632812 C-20.32167749 9.80895377 -13.84512561 6.21982971 -7.45214844 2.38500977 C-4.93000773 0.96046733 -2.92830617 0 0 0 Z " fill="#E5964D" transform="translate(406,99)"/>
<path d="M0 0 C0.66 0.33 1.32 0.66 2 1 C2 22.12 2 43.24 2 65 C-2.35010863 63.54996379 -5.99108518 62.09990776 -10 60 C-10 59.34 -10 58.68 -10 58 C-10.804375 57.773125 -11.60875 57.54625 -12.4375 57.3125 C-20.0331499 54.51410267 -30.25931668 49.74068332 -36 44 C-36.08758003 42.00035018 -36.10696576 39.9976389 -36.09765625 37.99609375 C-36.09443359 36.78115234 -36.09121094 35.56621094 -36.08789062 34.31445312 C-36.07951172 33.03505859 -36.07113281 31.75566406 -36.0625 30.4375 C-36.05798828 29.15423828 -36.05347656 27.87097656 -36.04882812 26.54882812 C-36.03699545 23.36583978 -36.02051068 20.18294238 -36 17 C-34.23857706 16.19596622 -32.47678778 15.39273498 -30.71484375 14.58984375 C-29.24325806 13.91876587 -29.24325806 13.91876587 -27.74194336 13.23413086 C-25.69558843 12.31307982 -23.63284479 11.42828055 -21.5625 10.5625 C-15.15760191 7.75333417 -8.90950636 4.56854254 -2.75390625 1.25 C-1.84511719 0.8375 -0.93632812 0.425 0 0 Z " fill="#264774" transform="translate(215,288)"/>
<path d="M0 0 C0 0.66 0 1.32 0 2 C-0.66 2 -1.32 2 -2 2 C-2 2.66 -2 3.32 -2 4 C-0.68 4.33 0.64 4.66 2 5 C2.40178463 11.42855414 1.77298748 16.14591532 -1 22 C-1.99 22.66 -2.98 23.32 -4 24 C-4.72382467 26.05925139 -4.72382467 26.05925139 -5 28 C-7.7710688 25.65408148 -8.52059284 23.85223799 -9.1875 20.3125 C-9.34605469 19.50425781 -9.50460937 18.69601563 -9.66796875 17.86328125 C-9.77753906 17.24839844 -9.88710938 16.63351563 -10 16 C-11.49853516 15.92652344 -11.49853516 15.92652344 -13.02734375 15.8515625 C-14.96287109 15.73941406 -14.96287109 15.73941406 -16.9375 15.625 C-18.22527344 15.55539063 -19.51304687 15.48578125 -20.83984375 15.4140625 C-22.40412109 15.20910156 -22.40412109 15.20910156 -24 15 C-24.33 14.34 -24.66 13.68 -25 13 C-23.5625 10.9375 -23.5625 10.9375 -21 9 C-17.92416977 8.94176569 -15.01264352 9.40777093 -12 10 C-11.67 8.35 -11.34 6.7 -11 5 C-11.66 4.67 -12.32 4.34 -13 4 C-12 3 -12 3 -8.625 2.5625 C-5.26007323 2.04035619 -3.19639304 0 0 0 Z " fill="#F28A2E" transform="translate(395,108)"/>
<path d="M0 0 C0.66 0 1.32 0 2 0 C2 0.66 2 1.32 2 2 C2.99 2.33 3.98 2.66 5 3 C6.32421875 4.63671875 6.32421875 4.63671875 7.6875 6.6875 C10.88419557 11.12162611 14.51523596 13.94926438 19 17 C19.886875 17.70125 20.77375 18.4025 21.6875 19.125 C30.89454464 24.3365347 41.39440401 26.02980607 51.8125 26.5625 C52.60076172 26.60568359 53.38902344 26.64886719 54.20117188 26.69335938 C56.13394215 26.79878321 58.06695026 26.89983094 60 27 C60 27.33 60 27.66 60 28 C55.80084693 28.09907258 51.60231748 28.17156173 47.40234375 28.21972656 C45.97448879 28.23980982 44.54671575 28.26708252 43.11914062 28.30175781 C41.06359632 28.35042669 39.00914145 28.37299967 36.953125 28.390625 C35.09929199 28.4220459 35.09929199 28.4220459 33.20800781 28.45410156 C29.39321478 27.91410803 28.44539998 26.86417044 26 24 C23.18774652 22.91730593 23.18774652 22.91730593 20.125 22.3125 C19.11695312 22.08175781 18.10890625 21.85101563 17.0703125 21.61328125 C14.05500486 21.01098698 11.03623309 20.48489096 8 20 C8 21.32 8 22.64 8 24 C8.99 24.33 9.98 24.66 11 25 C12.38671875 27.50390625 12.38671875 27.50390625 13.6875 30.5625 C14.34298828 32.08037109 14.34298828 32.08037109 15.01171875 33.62890625 C15.33785156 34.41136719 15.66398437 35.19382812 16 36 C15.01 36 14.02 36 13 36 C12.67 34.68 12.34 33.36 12 32 C11.34 32 10.68 32 10 32 C3.7517436 22.98584877 0 10.95640975 0 0 Z " fill="#E99046" transform="translate(93,248)"/>
<path d="M0 0 C3.96 0 7.92 0 12 0 C12.495 1.98 12.495 1.98 13 4 C12.21625 4.2475 11.4325 4.495 10.625 4.75 C7.50176632 6.23725413 7.36184768 6.93584271 6 10 C2.89399647 13.94546394 -0.40133189 17.49129859 -4 21 C-6.43919256 23.37970005 -8.74421621 25.66483503 -10.8125 28.375 C-13.31870177 31.38244212 -16.12174196 33.75118671 -19.09375 36.28515625 C-21.35792407 38.32198498 -23.21056004 40.53952006 -25 43 C-25.66 42.67 -26.32 42.34 -27 42 C-26.67 40.68 -26.34 39.36 -26 38 C-27.65 38.66 -29.3 39.32 -31 40 C-29.38405168 37.95880212 -27.7143618 35.95927063 -26 34 C-25.34 34 -24.68 34 -24 34 C-24 33.34 -24 32.68 -24 32 C-22.3214487 30.50370821 -20.58041102 29.07707339 -18.8125 27.6875 C-14.10984258 23.97951443 -9.92450774 20.03447961 -5.8125 15.6875 C-4 14 -4 14 -2 14 C-1.67 13.01 -1.34 12.02 -1 11 C0.45891321 9.73560855 1.92252344 8.47501148 3.43359375 7.2734375 C5.43115791 5.6494826 7.21572102 3.85290509 9 2 C6.03 1.67 3.06 1.34 0 1 C0 0.67 0 0.34 0 0 Z " fill="#DD9A5A" transform="translate(372,124)"/>
<path d="M0 0 C7.05707675 1.85712546 12.99014985 5.99343323 19 10 C19 12 19 12 17.1875 14.0625 C15 16 15 16 12 17 C11.319375 17.680625 10.63875 18.36125 9.9375 19.0625 C9.298125 19.701875 8.65875 20.34125 8 21 C7.34 21 6.68 21 6 21 C6 21.66 6 22.32 6 23 C2.44219804 22.39009109 -0.6828589 21.4216319 -4 20 C-4 19.34 -4 18.68 -4 18 C-4.804375 17.773125 -5.60875 17.54625 -6.4375 17.3125 C-12.18624396 15.1945417 -17.80838791 12.56419983 -22 8 C-16.25 8.875 -16.25 8.875 -14 10 C-14 10.66 -14 11.32 -14 12 C-12.02 12 -10.04 12 -8 12 C-7.79375 12.61875 -7.5875 13.2375 -7.375 13.875 C-5.4190892 16.89777123 -3.42333931 17.07833172 0 18 C2 18.66666667 4 19.33333333 6 20 C6.82638376 17.10765685 7 15.11257569 7 12 C8.32 11.67 9.64 11.34 11 11 C10.505 9.515 10.505 9.515 10 8 C7.03 7.505 7.03 7.505 4 7 C4.33 6.01 4.66 5.02 5 4 C3.35 3.34 1.7 2.68 0 2 C0 1.34 0 0.68 0 0 Z " fill="#24466F" transform="translate(299,159)"/>
<path d="M0 0 C0 41.58 0 83.16 0 126 C-0.33 126 -0.66 126 -1 126 C-1.495 65.115 -1.495 65.115 -2 3 C-3.98 5.97 -3.98 5.97 -6 9 C-10.16 13.90666667 -10.16 13.90666667 -13.8125 14.3125 C-14.534375 14.209375 -15.25625 14.10625 -16 14 C-14.90234298 12.90234298 -13.80394073 11.8054267 -12.703125 10.7109375 C-11.37018475 9.37188284 -10.04980812 8.02031941 -8.734375 6.6640625 C-7.93515625 5.84679687 -7.1359375 5.02953125 -6.3125 4.1875 C-5.16201172 3.00220703 -5.16201172 3.00220703 -3.98828125 1.79296875 C-2 0 -2 0 0 0 Z " fill="#3F506A" transform="translate(321,206)"/>
<path d="M0 0 C0.66 0 1.32 0 2 0 C2 37.62 2 75.24 2 114 C2.66 114.33 3.32 114.66 4 115 C3.505 115.99 3.505 115.99 3 117 C2.34 117 1.68 117 1 117 C1 117.66 1 118.32 1 119 C-0.093125 119.433125 -1.18625 119.86625 -2.3125 120.3125 C-5.09408793 121.49495641 -7.06361939 122.60800043 -9 125 C-9.33 123.68 -9.66 122.36 -10 121 C-8.54550599 119.9944239 -7.08627557 118.99569565 -5.625 118 C-4.81289063 117.443125 -4.00078125 116.88625 -3.1640625 116.3125 C-1 115 -1 115 1 115 C0.67 77.05 0.34 39.1 0 0 Z " fill="#405774" transform="translate(348,208)"/>
<path d="M0 0 C-0.875 7.75 -0.875 7.75 -2 10 C-2.66 10 -3.32 10 -4 10 C-4 10.66 -4 11.32 -4 12 C-4.99 12 -5.98 12 -7 12 C-6.67 12.99 -6.34 13.98 -6 15 C-6.99 15.33 -7.98 15.66 -9 16 C-9 15.34 -9 14.68 -9 14 C-10.32 13.67 -11.64 13.34 -13 13 C-13 12.34 -13 11.68 -13 11 C-12.34 11 -11.68 11 -11 11 C-11 10.34 -11 9.68 -11 9 C-12.0209375 9.7425 -12.0209375 9.7425 -13.0625 10.5 C-16.59465009 12.30365111 -19.08636991 12.23021353 -23 12 C-19.53408292 9.23769015 -15.78298098 7.05530386 -11.9375 4.875 C-11.31294922 4.51535156 -10.68839844 4.15570313 -10.04492188 3.78515625 C-3.40317767 0 -3.40317767 0 0 0 Z " fill="#EC8831" transform="translate(406,99)"/>
<path d="M0 0 C0.33 1.98 0.66 3.96 1 6 C0.01 6.66 -0.98 7.32 -2 8 C-2.33 8.99 -2.66 9.98 -3 11 C-4.32407669 11.68486725 -5.65909241 12.34870203 -7 13 C-7.9590625 14.0209375 -7.9590625 14.0209375 -8.9375 15.0625 C-11.30839468 17.28970409 -12.81664932 17.64629437 -16 18 C-17.125 14.25 -17.125 14.25 -16 12 C-14.68 12 -13.36 12 -12 12 C-11.7834375 11.1028125 -11.7834375 11.1028125 -11.5625 10.1875 C-11.1127561 8.43849596 -10.57107659 6.71322977 -10 5 C-9.34 5 -8.68 5 -8 5 C-7.67 4.01 -7.34 3.02 -7 2 C-4 0 -4 0 0 0 Z " fill="#F28A2D" transform="translate(298,204)"/>
<path d="M0 0 C0 0.66 0 1.32 0 2 C-0.66 2 -1.32 2 -2 2 C-2 2.66 -2 3.32 -2 4 C-3.98 4 -5.96 4 -8 4 C-8.33 4.99 -8.66 5.98 -9 7 C-10.125 8.6875 -10.125 8.6875 -12 10 C-14.33294775 10.04241723 -16.66702567 10.04092937 -19 10 C-21.03327085 10.8499169 -21.03327085 10.8499169 -23 12 C-25.33610498 12.74755359 -27.62472086 13.40731998 -30 14 C-30.74378906 14.18820312 -31.48757812 14.37640625 -32.25390625 14.5703125 C-38.87711462 16.07993624 -45.22665496 16.2094849 -52 16 C-52 15.67 -52 15.34 -52 15 C-51.11441406 14.84144531 -50.22882813 14.68289063 -49.31640625 14.51953125 C-35.98427598 12.00848486 -23.04376596 8.63594233 -10.61328125 3.11328125 C-3.30526316 0 -3.30526316 0 0 0 Z " fill="#E3964C" transform="translate(205,259)"/>
<path d="M0 0 C3.96 0 7.92 0 12 0 C12.33 1.32 12.66 2.64 13 4 C12.21625 4.2475 11.4325 4.495 10.625 4.75 C7.50176632 6.23725413 7.36184768 6.93584271 6 10 C2.89029786 13.95016218 -0.44376509 17.44376509 -4 21 C-4.556875 21.763125 -5.11375 22.52625 -5.6875 23.3125 C-6.120625 23.869375 -6.55375 24.42625 -7 25 C-7.66 25 -8.32 25 -9 25 C-9 24.01 -9 23.02 -9 22 C-9.99 22.33 -10.98 22.66 -12 23 C-12 21 -12 21 -10.3203125 19.2734375 C-9.59585937 18.64695313 -8.87140625 18.02046875 -8.125 17.375 C-7.40570313 16.74335938 -6.68640625 16.11171875 -5.9453125 15.4609375 C-4 14 -4 14 -2 14 C-1.67 13.01 -1.34 12.02 -1 11 C0.45891321 9.73560855 1.92252344 8.47501148 3.43359375 7.2734375 C5.43115791 5.6494826 7.21572102 3.85290509 9 2 C6.03 1.67 3.06 1.34 0 1 C0 0.67 0 0.34 0 0 Z " fill="#DCB385" transform="translate(372,124)"/>
<path d="M0 0 C2 1 2 1 2.6875 2.9375 C3 5 3 5 2 7 C1.38511719 6.96519531 0.77023437 6.93039063 0.13671875 6.89453125 C-0.67152344 6.86746094 -1.47976563 6.84039062 -2.3125 6.8125 C-3.11300781 6.77769531 -3.91351563 6.74289063 -4.73828125 6.70703125 C-7.48924414 7.06337359 -8.32224589 7.84443889 -10 10 C-10 10.33 -10 10.66 -10 11 C-3.07 11.495 -3.07 11.495 4 12 C4.66 13.98 5.32 15.96 6 18 C5.34 18 4.68 18 4 18 C3.505 15.525 3.505 15.525 3 13 C-3.6 13 -10.2 13 -17 13 C-17 11.68 -17 10.36 -17 9 C-14.21526125 7.46621464 -11.42121662 5.9502442 -8.625 4.4375 C-7.8309375 3.99986328 -7.036875 3.56222656 -6.21875 3.11132812 C-5.45820313 2.70205078 -4.69765625 2.29277344 -3.9140625 1.87109375 C-2.8614624 1.29766235 -2.8614624 1.29766235 -1.78759766 0.71264648 C-1.19769043 0.47747314 -0.6077832 0.2422998 0 0 Z " fill="#DA8B40" transform="translate(381,111)"/>
<path d="M0 0 C0.99 0.495 0.99 0.495 2 1 C2 1.66 2 2.32 2 3 C3.32 3.33 4.64 3.66 6 4 C6.66 6.31 7.32 8.62 8 11 C7.34 11.66 6.68 12.32 6 13 C5.34 12.67 4.68 12.34 4 12 C4 13.32 4 14.64 4 16 C4.99 16.33 5.98 16.66 7 17 C8.38671875 19.50390625 8.38671875 19.50390625 9.6875 22.5625 C10.34298828 24.08037109 10.34298828 24.08037109 11.01171875 25.62890625 C11.33785156 26.41136719 11.66398437 27.19382812 12 28 C11.01 28 10.02 28 9 28 C8.67 26.68 8.34 25.36 8 24 C7.34 24 6.68 24 6 24 C0.47004176 16.30614506 -0.45614167 9.19041001 0 0 Z " fill="#F5882B" transform="translate(97,256)"/>
<path d="M0 0 C0.66 0.33 1.32 0.66 2 1 C1.88272207 8.8146519 1.757886 16.6291563 1.62768555 24.44360352 C1.5842582 27.10438265 1.5425891 29.76519107 1.50268555 32.42602539 C1.44517128 36.24113815 1.38142332 40.05610242 1.31640625 43.87109375 C1.29969376 45.06899033 1.28298126 46.2668869 1.26576233 47.50108337 C1.24581711 48.6021492 1.22587189 49.70321503 1.20532227 50.83764648 C1.18977798 51.81249496 1.1742337 52.78734344 1.15821838 53.79173279 C1 56 1 56 0 57 C-2.35313555 57.07271741 -4.70833668 57.08370868 -7.0625 57.0625 C-8.35285156 57.05347656 -9.64320313 57.04445313 -10.97265625 57.03515625 C-11.97167969 57.02355469 -12.97070312 57.01195312 -14 57 C-14 56.34 -14 55.68 -14 55 C-14.66 54.67 -15.32 54.34 -16 54 C-11.05 54 -6.1 54 -1 54 C-0.67 36.18 -0.34 18.36 0 0 Z " fill="#485B75" transform="translate(150,208)"/>
<path d="M0 0 C1.32 0.33 2.64 0.66 4 1 C3.01 1.495 3.01 1.495 2 2 C1.34444881 4.52733235 1.34444881 4.52733235 1 7 C0.01 7 -0.98 7 -2 7 C-2.66 8.32 -3.32 9.64 -4 11 C-4.99 11 -5.98 11 -7 11 C-7 11.66 -7 12.32 -7 13 C-8.98 13.33 -10.96 13.66 -13 14 C-12.45276317 10.62537285 -11.9451 8.91765 -10 6 C-8.67405895 5.63837971 -7.34061543 5.30271961 -6 5 C-5.67 4.34 -5.34 3.68 -5 3 C-3.66666667 2.66666667 -2.33333333 2.33333333 -1 2 C-0.67 1.34 -0.34 0.68 0 0 Z " fill="#F18A2D" transform="translate(315,188)"/>
<path d="M0 0 C5.75 0.875 5.75 0.875 8 2 C8 2.66 8 3.32 8 4 C9.98 4 11.96 4 14 4 C14.20625 4.61875 14.4125 5.2375 14.625 5.875 C16.5809108 8.89777123 18.57666069 9.07833172 22 10 C24 10.66666667 26 11.33333333 28 12 C28 11.34 28 10.68 28 10 C29.32 10.66 30.64 11.32 32 12 C30.68 12.33 29.36 12.66 28 13 C28 13.66 28 14.32 28 15 C24.44219804 14.39009109 21.3171411 13.4216319 18 12 C18 11.34 18 10.68 18 10 C17.195625 9.773125 16.39125 9.54625 15.5625 9.3125 C9.81375604 7.1945417 4.19161209 4.56419983 0 0 Z " fill="#536782" transform="translate(277,167)"/>
<path d="M0 0 C0 19.8 0 39.6 0 60 C-2.23077928 56.65383108 -2.24524037 55.60406041 -2.22705078 51.70239258 C-2.22682419 50.08105156 -2.22682419 50.08105156 -2.22659302 48.42695618 C-2.21627045 47.26125595 -2.20594788 46.09555573 -2.1953125 44.89453125 C-2.19106766 43.10301888 -2.19106766 43.10301888 -2.18673706 41.27531433 C-2.17552677 37.45427503 -2.15042037 33.63346866 -2.125 29.8125 C-2.11497131 27.22461276 -2.10584527 24.63672184 -2.09765625 22.04882812 C-2.07558465 15.69913904 -2.0420986 9.34958616 -2 3 C-2.61875 3.309375 -3.2375 3.61875 -3.875 3.9375 C-5.25 4.625 -6.625 5.3125 -8 6 C-7.8125 4.125 -7.8125 4.125 -7 2 C-4.55683729 0.74709605 -2.75474605 0 0 0 Z " fill="#1B3558" transform="translate(216,290)"/>
<path d="M0 0 C0.66 0.33 1.32 0.66 2 1 C1.01 2.485 1.01 2.485 0 4 C-0.99 4 -1.98 4 -3 4 C-3 4.66 -3 5.32 -3 6 C-3.804375 6.2475 -4.60875 6.495 -5.4375 6.75 C-6.7059375 7.36875 -6.7059375 7.36875 -8 8 C-8.67156616 9.93618425 -8.67156616 9.93618425 -9 12 C-10.19921875 13.6171875 -10.19921875 13.6171875 -12 15 C-14.48046875 15.29296875 -14.48046875 15.29296875 -17.1875 15.1875 C-18.08855469 15.16042969 -18.98960937 15.13335937 -19.91796875 15.10546875 C-20.60503906 15.07066406 -21.29210937 15.03585938 -22 15 C-15.49994085 9.54833749 -8.37565623 5.14880663 -1 1 C-0.67 0.67 -0.34 0.34 0 0 Z " fill="#E68D3B" transform="translate(253,230)"/>
<path d="M0 0 C2.31 0 4.62 0 7 0 C-6.24698663 7.00018488 -19.40719197 7.1751137 -34 7 C-34 6.67 -34 6.34 -34 6 C-30.07194073 5.10658802 -26.26913754 4.78131971 -22.25 4.5625 C-17.29845453 4.24137467 -12.71169033 3.62175831 -7.91015625 2.41015625 C-5.25676755 1.84041021 -2.6999987 1.86153853 0 2 C0 1.34 0 0.68 0 0 Z " fill="#DA9A5E" transform="translate(173,294)"/>
<path d="M0 0 C-11.9140625 5.95703125 -11.9140625 5.95703125 -14.01660156 7.00244141 C-15.8010786 7.89995164 -17.56964347 8.8289335 -19.3359375 9.76171875 C-22 11 -22 11 -25 11 C-24.625 9.0625 -24.625 9.0625 -24 7 C-21.29120665 5.64560332 -18.99066732 5.93498549 -16 6 C-16 5.34 -16 4.68 -16 4 C-14.68 4 -13.36 4 -12 4 C-12 3.34 -12 2.68 -12 2 C-10.56656 1.46809459 -9.12804633 0.94984742 -7.6875 0.4375 C-6.88699219 0.14746094 -6.08648437 -0.14257812 -5.26171875 -0.44140625 C-3 -1 -3 -1 0 0 Z " fill="#DF9D61" transform="translate(205,283)"/>
<path d="M0 0 C0.66 0 1.32 0 2 0 C2 0.66 2 1.32 2 2 C2.99 2.33 3.98 2.66 5 3 C6.53515625 4.7421875 6.53515625 4.7421875 8.0625 6.875 C8.56910156 7.57367188 9.07570313 8.27234375 9.59765625 8.9921875 C10.75322511 10.64667885 11.88056594 12.32084891 13 14 C12.01 14 11.02 14 10 14 C10 13.34 10 12.68 10 12 C9.360625 11.87625 8.72125 11.7525 8.0625 11.625 C7.381875 11.41875 6.70125 11.2125 6 11 C5.67 10.34 5.34 9.68 5 9 C4.67 11.64 4.34 14.28 4 17 C2.04020631 14.06030946 1.51679931 12.44977414 0.875 9.0625 C0.70742187 8.20785156 0.53984375 7.35320312 0.3671875 6.47265625 C0 4 0 4 0 0 Z " fill="#DAA876" transform="translate(93,248)"/>
<path d="M0 0 C0 0.99 0 1.98 0 3 C-4.455 3.495 -4.455 3.495 -9 4 C-9.33 4.99 -9.66 5.98 -10 7 C-11.32 7 -12.64 7 -14 7 C-14.33 7.99 -14.66 8.98 -15 10 C-16.32 9.67 -17.64 9.34 -19 9 C-7.24201224 -2.41400408 -7.24201224 -2.41400408 0 0 Z " fill="#EB8A31" transform="translate(324,184)"/>
<path d="M0 0 C0.99 0.33 1.98 0.66 3 1 C1.66479508 4.03716141 0.2811773 5.89210626 -2.2578125 8.015625 C-2.88300781 8.54414063 -3.50820313 9.07265625 -4.15234375 9.6171875 C-4.80332031 10.15601563 -5.45429688 10.69484375 -6.125 11.25 C-6.78371094 11.80429688 -7.44242187 12.35859375 -8.12109375 12.9296875 C-9.74235058 14.2924831 -11.37051208 15.64705703 -13 17 C-14 14 -14 14 -13.0625 11.8125 C-12.5365625 10.9153125 -12.5365625 10.9153125 -12 10 C-10.68 10.33 -9.36 10.66 -8 11 C-7.67 10.01 -7.34 9.02 -7 8 C-6.34 8 -5.68 8 -5 8 C-5 6.68 -5 5.36 -5 4 C-4.34 4 -3.68 4 -3 4 C-2.67 3.34 -2.34 2.68 -2 2 C-1.34 2 -0.68 2 0 2 C0 1.34 0 0.68 0 0 Z " fill="#E29753" transform="translate(281,223)"/>
<path d="M0 0 C1.32 0.33 2.64 0.66 4 1 C2.7934375 1.4021875 2.7934375 1.4021875 1.5625 1.8125 C0.716875 2.204375 -0.12875 2.59625 -1 3 C-1.33 3.99 -1.66 4.98 -2 6 C-4.50390625 7.82421875 -4.50390625 7.82421875 -7.5625 9.6875 C-9.08037109 10.62142578 -9.08037109 10.62142578 -10.62890625 11.57421875 C-11.41136719 12.04472656 -12.19382813 12.51523437 -13 13 C-13.66 12.34 -14.32 11.68 -15 11 C-14.34 11 -13.68 11 -13 11 C-13 10.01 -13 9.02 -13 8 C-12.34 7.67 -11.68 7.34 -11 7 C-11 6.34 -11 5.68 -11 5 C-9.35 5.33 -7.7 5.66 -6 6 C-5.67 4.68 -5.34 3.36 -5 2 C-3.35 2 -1.7 2 0 2 C0 1.34 0 0.68 0 0 Z " fill="#E49E5C" transform="translate(246,253)"/>
<path d="M0 0 C5.47932789 1.54545146 10.11429181 4.15543212 15 7 C14.67 7.66 14.34 8.32 14 9 C11.03 8.01 8.06 7.02 5 6 C5 5.34 5 4.68 5 4 C3.7625 4.28875 2.525 4.5775 1.25 4.875 C0.20585937 5.11863281 0.20585937 5.11863281 -0.859375 5.3671875 C-3.06961277 6.02057896 -4.97226779 6.91306247 -7 8 C-6.02133662 6.85373678 -5.04205413 5.70800212 -4.0625 4.5625 C-3.51722656 3.92441406 -2.97195313 3.28632813 -2.41015625 2.62890625 C-1.63204305 1.73008851 -0.84063472 0.84063472 0 0 Z " fill="#536684" transform="translate(342,184)"/>
<path d="M0 0 C0.33 0.66 0.66 1.32 1 2 C0 4 0 4 -1.9375 4.875 C-4.13651824 5.81212257 -4.13651824 5.81212257 -4.890625 7.87890625 C-7.46491773 12.80088144 -14.14044464 16.57022232 -19 19 C-19.66 18.67 -20.32 18.34 -21 18 C-19.625 16.5 -19.625 16.5 -18 15 C-17.34 15 -16.68 15 -16 15 C-16 14.34 -16 13.68 -16 13 C-15.443125 12.773125 -14.88625 12.54625 -14.3125 12.3125 C-11.34760028 10.62971908 -9.383485 8.43891488 -7 6 C-4.69833003 3.96206305 -2.35548802 1.97535163 0 0 Z " fill="#E1A870" transform="translate(336,167)"/>
<path d="M0 0 C0.81339844 0.13277344 1.62679687 0.26554687 2.46484375 0.40234375 C11.9739328 1.86774892 21.39641932 2.55818878 31 3 C31 3.33 31 3.66 31 4 C21.1 4 11.2 4 1 4 C0.67 2.68 0.34 1.36 0 0 Z " fill="#DE8F4C" transform="translate(122,272)"/>
<path d="M0 0 C0.33 0.66 0.66 1.32 1 2 C0.67 2.66 0.34 3.32 0 4 C1.65 3.34 3.3 2.68 5 2 C3.53966649 6.38100054 0.68438886 9.04399551 -3.3125 11.3125 C-3.869375 11.539375 -4.42625 11.76625 -5 12 C-4.34 10.35 -3.68 8.7 -3 7 C-4.98 7.66 -6.96 8.32 -9 9 C-7.38405168 6.95880212 -5.7143618 4.95927063 -4 3 C-3.34 3 -2.68 3 -2 3 C-2 2.34 -2 1.68 -2 1 C-1.34 0.67 -0.68 0.34 0 0 Z " fill="#DFA769" transform="translate(350,155)"/>
<path d="M0 0 C-1.48868707 4.60139641 -3.74629855 7.50227094 -7 11 C-7.66 11 -8.32 11 -9 11 C-9 10.01 -9 9.02 -9 8 C-9.99 8.33 -10.98 8.66 -12 9 C-12 7 -12 7 -10.390625 5.2734375 C-9.68421875 4.64695313 -8.9778125 4.02046875 -8.25 3.375 C-7.55390625 2.74335938 -6.8578125 2.11171875 -6.140625 1.4609375 C-4 0 -4 0 0 0 Z " fill="#D4AA76" transform="translate(372,138)"/>
<path d="M0 0 C1.32 0.66 2.64 1.32 4 2 C3.01 2 2.02 2 1 2 C0.67 8.27 0.34 14.54 0 21 C-0.66 21.33 -1.32 21.66 -2 22 C-2.25494218 18.89738494 -2.47447008 15.79325198 -2.6875 12.6875 C-2.76033203 11.80642578 -2.83316406 10.92535156 -2.90820312 10.01757812 C-2.96298828 9.17001953 -3.01777344 8.32246094 -3.07421875 7.44921875 C-3.13182373 6.66893311 -3.18942871 5.88864746 -3.2487793 5.0847168 C-2.93485931 2.45413512 -2.01131557 1.64353215 0 0 Z " fill="#224270" transform="translate(287,235)"/>
<path d="M0 0 C2 1 2 1 2.6875 2.9375 C3 5 3 5 2 7 C-2.29 7 -6.58 7 -11 7 C-8.49147051 4.49147051 -6.98701988 3.27760996 -3.9375 1.75 C-3.24527344 1.39421875 -2.55304688 1.0384375 -1.83984375 0.671875 C-1.23269531 0.45015625 -0.62554687 0.2284375 0 0 Z " fill="#E89C5A" transform="translate(381,111)"/>
<path d="M0 0 C4.0845391 0.6330282 7.41321591 1.9452729 11.125 3.75 C12.67574219 4.48476563 12.67574219 4.48476563 14.2578125 5.234375 C17.26558863 7.17100579 18.43428593 8.82537975 20 12 C15.37909884 10.35800988 11.36156215 7.9659032 7.1875 5.4375 C6.49462891 5.02564453 5.80175781 4.61378906 5.08789062 4.18945312 C3.37298683 3.15713173 1.68380945 2.08229765 0 1 C0 0.67 0 0.34 0 0 Z " fill="#586A88" transform="translate(165,352)"/>
<path d="M0 0 C5.94 0.33 11.88 0.66 18 1 C18 1.33 18 1.66 18 2 C17.02417969 2.04898437 16.04835937 2.09796875 15.04296875 2.1484375 C13.77066406 2.22320312 12.49835938 2.29796875 11.1875 2.375 C9.29064453 2.47941406 9.29064453 2.47941406 7.35546875 2.5859375 C3.87244766 2.76102939 3.87244766 2.76102939 1 5 C0.49468134 6.92441415 0.49468134 6.92441415 0.48828125 9.1328125 C0.45283203 9.93847656 0.41738281 10.74414062 0.38085938 11.57421875 C0.35830078 12.41597656 0.33574219 13.25773437 0.3125 14.125 C0.27833984 14.97449219 0.24417969 15.82398438 0.20898438 16.69921875 C0.12640827 18.79901105 0.06153022 20.89948564 0 23 C-0.33 23 -0.66 23 -1 23 C-1.02911321 19.9166866 -1.04683682 16.83340875 -1.0625 13.75 C-1.07087891 12.87730469 -1.07925781 12.00460937 -1.08789062 11.10546875 C-1.09111328 10.26113281 -1.09433594 9.41679687 -1.09765625 8.546875 C-1.10551147 7.38430176 -1.10551147 7.38430176 -1.11352539 6.19824219 C-1 4 -1 4 0 0 Z " fill="#8896AD" transform="translate(133,310)"/>
<path d="M0 0 C4.3890815 0.51035831 7.33708062 1.52214277 11 4 C10 6 10 6 6.9375 7.125 C5.4834375 7.558125 5.4834375 7.558125 4 8 C1.84622436 5.37801226 0.59927826 3.35595828 0 0 Z " fill="#355277" transform="translate(183,343)"/>
<path d="M0 0 C0.66 0 1.32 0 2 0 C2.33 1.65 2.66 3.3 3 5 C3.99 5.33 4.98 5.66 6 6 C7.38671875 8.50390625 7.38671875 8.50390625 8.6875 11.5625 C9.12449219 12.57441406 9.56148437 13.58632813 10.01171875 14.62890625 C10.33785156 15.41136719 10.66398437 16.19382812 11 17 C10.01 17 9.02 17 8 17 C7.67 15.68 7.34 14.36 7 13 C6.34 13 5.68 13 5 13 C2.22030558 8.94627896 0 4.970558 0 0 Z " fill="#DEA160" transform="translate(98,267)"/>
<path d="M0 0 C0 3.69418201 -1.28179295 5.77836178 -3 9 C-4.32 9 -5.64 9 -7 9 C-7.66 10.65 -8.32 12.3 -9 14 C-10.65 14 -12.3 14 -14 14 C-14 13.34 -14 12.68 -14 12 C-13.21625 11.7525 -12.4325 11.505 -11.625 11.25 C-8.90126024 10.28320084 -8.90126024 10.28320084 -8.0625 8.125 C-6.83761032 5.67522064 -5.48719502 4.4710478 -3.375 2.75 C-2.74335938 2.22921875 -2.11171875 1.7084375 -1.4609375 1.171875 C-0.73777344 0.59179688 -0.73777344 0.59179688 0 0 Z " fill="#576C89" transform="translate(304,220)"/>
<path d="M0 0 C0 0.66 0 1.32 0 2 C-0.99 2.66 -1.98 3.32 -3 4 C-3.45375 4.763125 -3.9075 5.52625 -4.375 6.3125 C-6.26703295 9.44163141 -8.18910391 11.65758659 -11 14 C-13.8125 14.3125 -13.8125 14.3125 -16 14 C-14.90234298 12.90234298 -13.80394073 11.8054267 -12.703125 10.7109375 C-11.37018475 9.37188284 -10.04980812 8.02031941 -8.734375 6.6640625 C-7.93515625 5.84679687 -7.1359375 5.02953125 -6.3125 4.1875 C-5.16201172 3.00220703 -5.16201172 3.00220703 -3.98828125 1.79296875 C-2 0 -2 0 0 0 Z " fill="#4D6483" transform="translate(321,206)"/>
<path d="M0 0 C1.98 0 3.96 0 6 0 C2.74304853 4.61401459 -1.24286757 8.00362438 -6 11 C-6.66 11 -7.32 11 -8 11 C-8 9.68 -8 8.36 -8 7 C-6.68 7 -5.36 7 -4 7 C-4 5.68 -4 4.36 -4 3 C-2.35 3.33 -0.7 3.66 1 4 C0.67 2.68 0.34 1.36 0 0 Z " fill="#E0A05E" transform="translate(260,240)"/>
<path d="M0 0 C0.66 0.33 1.32 0.66 2 1 C1.63802104 3.62434747 1.17343943 4.82013689 -0.6875 6.75 C-3.60427292 8.32663401 -5.73290013 8.22275681 -9 8 C-9 8.66 -9 9.32 -9 10 C-10.32 9.67 -11.64 9.34 -13 9 C-11.71186658 8.16121545 -10.41936744 7.32913217 -9.125 6.5 C-8.40570313 6.0359375 -7.68640625 5.571875 -6.9453125 5.09375 C-5 4 -5 4 -3 4 C-3 3.34 -3 2.68 -3 2 C-2.01 1.34 -1.02 0.68 0 0 Z " fill="#E3A25E" transform="translate(268,220)"/>
<path d="M0 0 C0.33 0.66 0.66 1.32 1 2 C1.66 1.34 2.32 0.68 3 0 C5.125 0.375 5.125 0.375 7 1 C6.46890625 1.32613281 5.9378125 1.65226562 5.390625 1.98828125 C1.81763269 4.19858124 -1.70082313 6.38815164 -5 9 C-5.66 8.67 -6.32 8.34 -7 8 C-7 7.34 -7 6.68 -7 6 C-6.01 6 -5.02 6 -4 6 C-4 5.34 -4 4.68 -4 4 C-4.66 3.67 -5.32 3.34 -6 3 C-4.02 2.01 -2.04 1.02 0 0 Z " fill="#4D6185" transform="translate(338,346)"/>
<path d="M0 0 C0.66 0.66 1.32 1.32 2 2 C1.34 2 0.68 2 0 2 C-0.12375 2.94875 -0.2475 3.8975 -0.375 4.875 C-1 8 -1 8 -3 10 C-4.32 10 -5.64 10 -7 10 C-6.835 9.401875 -6.67 8.80375 -6.5 8.1875 C-5.8885876 5.88655664 -5.8885876 5.88655664 -6 3 C-4.02 2.01 -2.04 1.02 0 0 Z " fill="#E08F41" transform="translate(346,161)"/>
<path d="M0 0 C5.96652354 1.57013777 10.82909025 4.75029782 16 8 C12.70303895 9.09898702 11.59505097 8.87124444 8.3125 8.0625 C7.50425781 7.86785156 6.69601562 7.67320312 5.86328125 7.47265625 C5.24839844 7.31667969 4.63351562 7.16070312 4 7 C4.33 6.01 4.66 5.02 5 4 C2.525 3.01 2.525 3.01 0 2 C0 1.34 0 0.68 0 0 Z " fill="#516784" transform="translate(299,159)"/>
<path d="M0 0 C-8.44827586 7 -8.44827586 7 -13 7 C-12.7734375 5.14453125 -12.7734375 5.14453125 -12 3 C-10.0390625 1.69921875 -10.0390625 1.69921875 -7.625 0.6875 C-6.83351562 0.34074219 -6.04203125 -0.00601563 -5.2265625 -0.36328125 C-3 -1 -3 -1 0 0 Z " fill="#304971" transform="translate(199,181)"/>
<path d="M0 0 C-0.75 7.75 -0.75 7.75 -3 10 C-3 8.35 -3 6.7 -3 5 C-5.64 5.33 -8.28 5.66 -11 6 C-8.24029211 2.78034079 -4.3526723 0 0 0 Z " fill="#DBA876" transform="translate(406,99)"/>
<path d="M0 0 C5.75 0.875 5.75 0.875 8 2 C8 2.66 8 3.32 8 4 C9.98 4 11.96 4 14 4 C14.66 5.32 15.32 6.64 16 8 C9.67832092 7.38325082 4.19421186 4.93436689 0 0 Z " fill="#3B5073" transform="translate(277,167)"/>
<path d="M0 0 C2.31 0 4.62 0 7 0 C3.74098981 3.51973101 0.1139069 6.52760275 -4 9 C-4.66 9 -5.32 9 -6 9 C-6 8.01 -6 7.02 -6 6 C-5.01 6 -4.02 6 -3 6 C-3 5.01 -3 4.02 -3 3 C-1.68 3 -0.36 3 1 3 C0.67 2.01 0.34 1.02 0 0 Z " fill="#E1A561" transform="translate(224,266)"/>
<path d="M0 0 C-0.1875 1.875 -0.1875 1.875 -1 4 C-4.29826907 5.78284814 -6.1774751 6 -10 6 C-10 6.99 -10 7.98 -10 9 C-11.65 8.67 -13.3 8.34 -15 8 C-12.61753661 5.31874582 -10.1454496 3.88576541 -6.9375 2.3125 C-5.62072266 1.65701172 -5.62072266 1.65701172 -4.27734375 0.98828125 C-2 0 -2 0 0 0 Z " fill="#E2A255" transform="translate(220,251)"/>
<path d="M0 0 C2 1 2 1 2 1 Z M-4 1 C-3.01 1.33 -2.02 1.66 -1 2 C-1.625 4.375 -1.625 4.375 -3 7 C-6.125 8.3125 -6.125 8.3125 -9 9 C-9.33 8.01 -9.66 7.02 -10 6 C-6.25 2.125 -6.25 2.125 -4 1 Z " fill="#1F416F" transform="translate(192,167)"/>
<path d="M0 0 C4.29053133 0.48756038 6.69594818 1.24662348 10 4 C11.31836295 4.69580267 12.64791086 5.37224433 14 6 C12 8 12 8 9.375 8.125 C8.59125 8.08375 7.8075 8.0425 7 8 C7.33 7.01 7.66 6.02 8 5 C6.68 5 5.36 5 4 5 C1.75 2.5 1.75 2.5 0 0 Z " fill="#4B617F" transform="translate(282,150)"/>
<path d="M0 0 C1.32 0.33 2.64 0.66 4 1 C4 1.66 4 2.32 4 3 C3.34 3 2.68 3 2 3 C2 3.99 2 4.98 2 6 C1.01 6 0.02 6 -1 6 C-1 6.66 -1 7.32 -1 8 C-1.66 8 -2.32 8 -3 8 C-3 7.34 -3 6.68 -3 6 C-3.99 5.67 -4.98 5.34 -6 5 C-5.67 4.34 -5.34 3.68 -5 3 C-4.34 3 -3.68 3 -3 3 C-2.67 2.34 -2.34 1.68 -2 1 C-1.34 1.33 -0.68 1.66 0 2 C0 1.34 0 0.68 0 0 Z " fill="#1B406F" transform="translate(166,192)"/>
<path d="M0 0 C0.66 0 1.32 0 2 0 C2 1.65 2 3.3 2 5 C0.35 5 -1.3 5 -3 5 C-3.33 5.99 -3.66 6.98 -4 8 C-4.99 8.495 -4.99 8.495 -6 9 C-6.33 9.66 -6.66 10.32 -7 11 C-7.99 10.01 -8.98 9.02 -10 8 C-8.63875 7.13375 -8.63875 7.13375 -7.25 6.25 C-4.02981424 4.16397832 -4.02981424 4.16397832 -1.75 1.75 C-0.88375 0.88375 -0.88375 0.88375 0 0 Z " fill="#EA8C32" transform="translate(334,172)"/>
<path d="M0 0 C-5.24391622 3.20231248 -10.44365709 6.36804809 -16 9 C-16 8.01 -16 7.02 -16 6 C-15.34 6 -14.68 6 -14 6 C-13.34 4.35 -12.68 2.7 -12 1 C-9.03 1.495 -9.03 1.495 -6 2 C-6 1.34 -6 0.68 -6 0 C-2.25 -1.125 -2.25 -1.125 0 0 Z " fill="#4F6A8B" transform="translate(310,339)"/>
<path d="M0 0 C1.9375 0.6875 1.9375 0.6875 2.9375 2.6875 C1.65225739 3.55130259 0.35907581 4.40330369 -0.9375 5.25 C-1.65679687 5.72566406 -2.37609375 6.20132812 -3.1171875 6.69140625 C-3.75914062 7.02011719 -4.40109375 7.34882813 -5.0625 7.6875 C-5.7225 7.3575 -6.3825 7.0275 -7.0625 6.6875 C-3.67177152 -0.55632902 -3.67177152 -0.55632902 0 0 Z " fill="#435F81" transform="translate(262.0625,362.3125)"/>
<path d="M0 0 C0 0.66 0 1.32 0 2 C-7.07555499 5.0017506 -13.37048445 5.34855655 -21 5 C-21 4.67 -21 4.34 -21 4 C-19.95199219 3.79503906 -18.90398437 3.59007812 -17.82421875 3.37890625 C-16.44529231 3.10687314 -15.06638717 2.83473209 -13.6875 2.5625 C-12.65206055 2.36043945 -12.65206055 2.36043945 -11.59570312 2.15429688 C-0.7191311 0 -0.7191311 0 0 0 Z " fill="#E2A669" transform="translate(174,270)"/>
<path d="M0 0 C0.33 0 0.66 0 1 0 C1 1.98 1 3.96 1 6 C2.0828125 6.1546875 2.0828125 6.1546875 3.1875 6.3125 C6.30053492 7.07346409 8.43005998 8.0909017 11 10 C11 10.99 11 11.98 11 13 C9.66666667 12.33333333 8.33333333 11.66666667 7 11 C5.4221875 10.2265625 5.4221875 10.2265625 3.8125 9.4375 C1 8 1 8 0 7 C-0.04092937 4.66702567 -0.04241723 2.33294775 0 0 Z " fill="#5B718F" transform="translate(231,355)"/>
<path d="M0 0 C5.28 0 10.56 0 16 0 C16 0.99 16 1.98 16 3 C11.38 3 6.76 3 2 3 C2 2.34 2 1.68 2 1 C1.34 0.67 0.68 0.34 0 0 Z " fill="#62768E" transform="translate(134,262)"/>
<path d="M0 0 C3.33333333 1.66666667 6.66666667 3.33333333 10 5 C9.67 5.99 9.34 6.98 9 8 C8.0925 7.690625 7.185 7.38125 6.25 7.0625 C3.83436662 6.2727737 1.47219715 5.57050703 -1 5 C-0.34 4.34 0.32 3.68 1 3 C0.67 2.01 0.34 1.02 0 0 Z " fill="#465D7C" transform="translate(357,192)"/>
<path d="M0 0 C5.5 1.46666667 5.5 1.46666667 7.875 4 C9 6 9 6 9 8 C9.66 8 10.32 8 11 8 C10.67 8.66 10.34 9.32 10 10 C8.32756598 8.71580959 6.66218553 7.42242815 5 6.125 C3.6078125 5.04605469 3.6078125 5.04605469 2.1875 3.9453125 C1.465625 3.30335938 0.74375 2.66140625 0 2 C0 1.34 0 0.68 0 0 Z " fill="#DD9C5E" transform="translate(109,285)"/>
<path d="M0 0 C2.475 0.99 2.475 0.99 5 2 C2.75 4.5625 2.75 4.5625 0 7 C-2.3125 6.8125 -2.3125 6.8125 -4 6 C-3.0022242 3.00667261 -2.2477975 2.05233685 0 0 Z " fill="#3E537A" transform="translate(350,338)"/>
<path d="M0 0 C-3.3730619 2.96829447 -6.62968884 4.06350475 -11 5 C-13.4375 4.625 -13.4375 4.625 -15 4 C-14.01 4 -13.02 4 -12 4 C-12 3.34 -12 2.68 -12 2 C-10.75579353 1.4654744 -9.50429064 0.94791389 -8.25 0.4375 C-7.55390625 0.14746094 -6.8578125 -0.14257812 -6.140625 -0.44140625 C-3.69987216 -1.07831803 -2.3596345 -0.80248831 0 0 Z " fill="#E1994E" transform="translate(186,268)"/>
<path d="M0 0 C0.969375 0.598125 1.93875 1.19625 2.9375 1.8125 C7.08984181 4.2035001 11.42562895 5.6308005 16 7 C12.74266739 8.08577754 11.67810011 7.90445241 8.4375 7.125 C7.65246094 6.94195312 6.86742188 6.75890625 6.05859375 6.5703125 C4 6 4 6 2 5 C2 4.01 2 3.02 2 2 C1.34 2 0.68 2 0 2 C0 1.34 0 0.68 0 0 Z " fill="#E7AE7B" transform="translate(111,265)"/>
<path d="M0 0 C-0.33 1.32 -0.66 2.64 -1 4 C-1.7425 4.12375 -2.485 4.2475 -3.25 4.375 C-5.80141485 4.95486701 -7.7267573 5.73708739 -10 7 C-10.66 6.34 -11.32 5.68 -12 5 C-10.75747321 4.15556432 -9.5056114 3.3248542 -8.25 2.5 C-7.55390625 2.0359375 -6.8578125 1.571875 -6.140625 1.09375 C-4 0 -4 0 0 0 Z " fill="#485F7F" transform="translate(192,165)"/>
<path d="M0 0 C0.66 0.33 1.32 0.66 2 1 C1.34 2.65 0.68 4.3 0 6 C-3.3 6.33 -6.6 6.66 -10 7 C-8.67408323 4.34816647 -7.13437549 3.74863527 -4.5625 2.3125 C-3.75941406 1.85488281 -2.95632813 1.39726562 -2.12890625 0.92578125 C-1.42636719 0.62027344 -0.72382813 0.31476563 0 0 Z " fill="#5B6E8B" transform="translate(326,335)"/>
<path d="M0 0 C0.99 0 1.98 0 3 0 C1.5741914 3.45195767 -0.09746334 5.1014256 -3.125 7.25 C-4.21167969 8.03117188 -4.21167969 8.03117188 -5.3203125 8.828125 C-5.87460937 9.21484375 -6.42890625 9.6015625 -7 10 C-7 8.68 -7 7.36 -7 6 C-6.21625 5.7525 -5.4325 5.505 -4.625 5.25 C-1.67682892 3.84610901 -1.0975223 2.99324263 0 0 Z " fill="#DEA873" transform="translate(292,215)"/>
<path d="M0 0 C0 3 0 3 -2.3125 5.5625 C-5 8 -5 8 -8 10 C-10.1875 9.625 -10.1875 9.625 -12 9 C-11.401875 8.731875 -10.80375 8.46375 -10.1875 8.1875 C-7.97398302 6.9858765 -6.73331856 5.8026513 -5 4 C-3.34466005 2.65263027 -1.67987227 1.31665664 0 0 Z " fill="#E1AA73" transform="translate(287,206)"/>
<path d="M0 0 C2.75 1.3125 2.75 1.3125 3.75 3.3125 C2.31465159 3.5351746 0.87654475 3.74011906 -0.5625 3.9375 C-1.36300781 4.05351562 -2.16351563 4.16953125 -2.98828125 4.2890625 C-5.25 4.3125 -5.25 4.3125 -8.25 2.3125 C-5.10367367 -0.09351425 -3.97120726 -0.84006307 0 0 Z " fill="#6A7996" transform="translate(252.25,130.6875)"/>
<path d="M0 0 C-3.222107 3.8665284 -6.14922412 4.88059018 -11 6 C-10 3 -10 3 -7.75 1.3125 C-4.8635748 -0.06511203 -3.14826764 -0.26985151 0 0 Z " fill="#536683" transform="translate(278,385)"/>
<path d="M0 0 C0.66 0 1.32 0 2 0 C3.42944945 2.35438733 4.08661261 3.48032433 3.625 6.25 C3.41875 6.8275 3.2125 7.405 3 8 C1.0625 7.25 1.0625 7.25 -1 6 C-1.75 3.875 -1.75 3.875 -2 2 C-1.34 2 -0.68 2 0 2 C0 1.34 0 0.68 0 0 Z " fill="#1D3C66" transform="translate(300,351)"/>
<path d="M0 0 C3.375 -0.125 3.375 -0.125 7 0 C7.66 0.66 8.32 1.32 9 2 C11.06874034 2.6425235 11.06874034 2.6425235 13 3 C13 3.66 13 4.32 13 5 C8.02693484 4.50269348 4.36200187 3.44697666 0 1 C0 0.67 0 0.34 0 0 Z " fill="#E5A769" transform="translate(121,295)"/>
<path d="M0 0 C1.32 0.33 2.64 0.66 4 1 C2.7934375 1.4021875 2.7934375 1.4021875 1.5625 1.8125 C0.716875 2.204375 -0.12875 2.59625 -1 3 C-1.33 3.99 -1.66 4.98 -2 6 C-4.0625 6.6875 -4.0625 6.6875 -6 7 C-5.67 5.35 -5.34 3.7 -5 2 C-3.35 2 -1.7 2 0 2 C0 1.34 0 0.68 0 0 Z " fill="#E3A967" transform="translate(246,253)"/>
<path d="M0 0 C0.66 0 1.32 0 2 0 C2 0.66 2 1.32 2 2 C3.32 2.33 4.64 2.66 6 3 C5.67 3.99 5.34 4.98 5 6 C1.22454612 4.90931332 -1.47043472 4.0916909 -4 1 C-2.68 1.33 -1.36 1.66 0 2 C0 1.34 0 0.68 0 0 Z " fill="#4E6588" transform="translate(219,380)"/>
<path d="M0 0 C4.16943993 0.93599672 5.58410733 1.37616099 8 5 C7.01 5 6.02 5 5 5 C5 4.34 5 3.68 5 3 C4.34 3.66 3.68 4.32 3 5 C2.01 5.495 2.01 5.495 1 6 C1 5.34 1 4.68 1 4 C-0.32 3.34 -1.64 2.68 -3 2 C-2.01 1.34 -1.02 0.68 0 0 Z " fill="#3E5983" transform="translate(199,368)"/>
<path d="M0 0 C0.66 0 1.32 0 2 0 C2.04254356 1.99954746 2.04080783 4.00041636 2 6 C1 7 1 7 -1.5625 7.0625 C-2.7690625 7.0315625 -2.7690625 7.0315625 -4 7 C-4.33 7.66 -4.66 8.32 -5 9 C-5.66 8.67 -6.32 8.34 -7 8 C-7 7.34 -7 6.68 -7 6 C-6.01 6 -5.02 6 -4 6 C-4 5.34 -4 4.68 -4 4 C-2.35 4.33 -0.7 4.66 1 5 C0.67 3.35 0.34 1.7 0 0 Z " fill="#E98F3A" transform="translate(250,246)"/>
<path d="M0 0 C1.32 0.33 2.64 0.66 4 1 C2.37660195 2.70884005 0.70680947 4.37446717 -1 6 C-1.66 6 -2.32 6 -3 6 C-3.33 6.99 -3.66 7.98 -4 9 C-4.33 9 -4.66 9 -5 9 C-5 7.35 -5 5.7 -5 4 C-4.360625 3.71125 -3.72125 3.4225 -3.0625 3.125 C-0.84793921 2.17176549 -0.84793921 2.17176549 0 0 Z " fill="#DC9B60" transform="translate(313,195)"/>
<path d="M0 0 C2.97 0.495 2.97 0.495 6 1 C3.22719294 4.08089673 0.93673644 5.68775452 -3 7 C-2.625 4.5625 -2.625 4.5625 -2 2 C-1.34 1.67 -0.68 1.34 0 1 C0 0.67 0 0.34 0 0 Z " fill="#546786" transform="translate(236,155)"/>
<path d="M0 0 C-2 3 -2 3 -4.3828125 3.51171875 C-5.28773438 3.56972656 -6.19265625 3.62773437 -7.125 3.6875 C-8.03507813 3.75324219 -8.94515625 3.81898438 -9.8828125 3.88671875 C-10.93082031 3.94279297 -10.93082031 3.94279297 -12 4 C-8.04881444 -0.06280097 -5.704407 -1.5845575 0 0 Z " fill="#4E6488" transform="translate(223,149)"/>
<path d="M0 0 C0.66 0.33 1.32 0.66 2 1 C1.34 2.65 0.68 4.3 0 6 C-2.64 6 -5.28 6 -8 6 C-5.63404067 3.38499232 -3.13950774 1.61000397 0 0 Z " fill="#4D6585" transform="translate(228,142)"/>
<path d="M0 0 C-0.3125 1.875 -0.3125 1.875 -1 4 C-4.6441774 6.4294516 -6.71241272 6.16179575 -11 6 C-3.28571429 0 -3.28571429 0 0 0 Z " fill="#E6AD76" transform="translate(394,105)"/>
<path d="M0 0 C0 0.66 0 1.32 0 2 C-0.66 2 -1.32 2 -2 2 C-2 2.66 -2 3.32 -2 4 C-5.3 4.33 -8.6 4.66 -12 5 C-8.20719891 2.15539918 -4.85346408 0 0 0 Z " fill="#E5A769" transform="translate(205,259)"/>
<path d="M0 0 C0.66 0.33 1.32 0.66 2 1 C1.34 2.32 0.68 3.64 0 5 C-0.99 5 -1.98 5 -3 5 C-3.33 5.99 -3.66 6.98 -4 8 C-5.32 7.67 -6.64 7.34 -8 7 C-5.36 4.69 -2.72 2.38 0 0 Z " fill="#E2A86D" transform="translate(313,186)"/>
<path d="M0 0 C1.32 0 2.64 0 4 0 C2.88820837 3.33537489 1.52588702 4.63707344 -1 7 C-1.99 6.67 -2.98 6.34 -4 6 C-3.67 4.68 -3.34 3.36 -3 2 C-2.34 2 -1.68 2 -1 2 C-0.67 1.34 -0.34 0.68 0 0 Z " fill="#DC904D" transform="translate(331,177)"/>
<path d="M0 0 C3.3 1.65 6.6 3.3 10 5 C10 5.66 10 6.32 10 7 C5.61537866 6.49890042 3.1999003 5.01704885 0 2 C0 1.34 0 0.68 0 0 Z " fill="#4F6783" transform="translate(210,357)"/>
<path d="M0 0 C3.3 1.65 6.6 3.3 10 5 C8.02 5.99 8.02 5.99 6 7 C6 6.34 6 5.68 6 5 C5.401875 4.87625 4.80375 4.7525 4.1875 4.625 C2 4 2 4 -1 2 C-0.67 1.34 -0.34 0.68 0 0 Z " fill="#526884" transform="translate(155,325)"/>
<path d="M0 0 C0.66 0.33 1.32 0.66 2 1 C-1.99613521 4.71069698 -4.37082652 6.59791618 -10 7 C-6.81404865 4.36021174 -3.69029454 1.89501612 0 0 Z " fill="#E0AB6F" transform="translate(241,238)"/>
<path d="M0 0 C0 0.99 0 1.98 0 3 C-2.64738916 4.4606285 -3.89448334 5 -7 5 C-6.625 3.0625 -6.625 3.0625 -6 1 C-4 0 -4 0 0 0 Z " fill="#E39C52" transform="translate(187,289)"/>
<path d="M0 0 C0.66 0.99 1.32 1.98 2 3 C-0.25 4.625 -0.25 4.625 -3 6 C-5.3125 5.1875 -5.3125 5.1875 -7 4 C-4.69 2.68 -2.38 1.36 0 0 Z " fill="#485A81" transform="translate(239,273)"/>
<path d="M0 0 C0.66 0 1.32 0 2 0 C2.69906942 1.59915881 3.38389468 3.20455045 4.0625 4.8125 C4.63677734 6.15248047 4.63677734 6.15248047 5.22265625 7.51953125 C6 10 6 10 5 13 C0 5.04545455 0 5.04545455 0 0 Z " fill="#DCAA77" transform="translate(98,267)"/>
<path d="M0 0 C0.66 0.33 1.32 0.66 2 1 C1.67 1.66 1.34 2.32 1 3 C0.34 3 -0.32 3 -1 3 C-1 3.66 -1 4.32 -1 5 C-0.34 5.33 0.32 5.66 1 6 C-0.65 6 -2.3 6 -4 6 C-4 4.68 -4 3.36 -4 2 C-2.125 0.9375 -2.125 0.9375 0 0 Z " fill="#DDB27E" transform="translate(368,118)"/>
<path d="M0 0 C4 0 4 0 7 2 C6.67 2.66 6.34 3.32 6 4 C2 4 2 4 -1 3 C-0.67 2.01 -0.34 1.02 0 0 Z " fill="#42587E" transform="translate(134,332)"/>
<path d="M0 0 C2.31 0 4.62 0 7 0 C4.42215154 2.64752004 2.08351902 4.94432065 -1 7 C-0.67 4.69 -0.34 2.38 0 0 Z " fill="#E1A666" transform="translate(268,233)"/>
<path d="M0 0 C0.66 0.33 1.32 0.66 2 1 C2.625 3.0625 2.625 3.0625 3 5 C1.02 5.99 1.02 5.99 -1 7 C-1 6.01 -1 5.02 -1 4 C-1.66 4 -2.32 4 -3 4 C-3 3.34 -3 2.68 -3 2 C-2.01 1.34 -1.02 0.68 0 0 Z " fill="#415C7F" transform="translate(136,195)"/>
<path d="M0 0 C1.32 0 2.64 0 4 0 C4 2 4 2 2 4.125 C1.34 4.74375 0.68 5.3625 0 6 C-2.475 5.01 -2.475 5.01 -5 4 C-5 3.67 -5 3.34 -5 3 C-3.35 3 -1.7 3 0 3 C0 2.01 0 1.02 0 0 Z " fill="#4D607C" transform="translate(314,169)"/>
<path d="M0 0 C2.125 0.9375 2.125 0.9375 4 2 C3.34 3.32 2.68 4.64 2 6 C-0.475 5.01 -0.475 5.01 -3 4 C-2.67 3.01 -2.34 2.02 -2 1 C-1.34 0.67 -0.68 0.34 0 0 Z " fill="#1C3D6A" transform="translate(251,146)"/>
<path d="M0 0 C3.3 1.65 6.6 3.3 10 5 C5.23374833 6.19156292 4.12120649 5.3415946 0 3 C0 2.01 0 1.02 0 0 Z " fill="#526684" transform="translate(236,372)"/>
<path d="M0 0 C0.66 0.33 1.32 0.66 2 1 C1.67 2.32 1.34 3.64 1 5 C-1.64 5 -4.28 5 -7 5 C-4.88437775 2.67281553 -2.94982021 1.14186589 0 0 Z " fill="#596E8B" transform="translate(278,363)"/>
<path d="M0 0 C0.66 0.33 1.32 0.66 2 1 C1.01 2.485 1.01 2.485 0 4 C-0.99 4 -1.98 4 -3 4 C-3 4.66 -3 5.32 -3 6 C-4.98 6.33 -6.96 6.66 -9 7 C-7.79492039 4.58984078 -6.83672718 4.19684272 -4.5 2.9375 C-2.0882696 1.6858579 -2.0882696 1.6858579 0 0 Z " fill="#E5B982" transform="translate(253,230)"/>
<path d="M0 0 C1.43088528 2.86177057 0.59991697 4.93375773 0 8 C-1.32 7.67 -2.64 7.34 -4 7 C-4 5.68 -4 4.36 -4 3 C-2 1.25 -2 1.25 0 0 Z " fill="#697890" transform="translate(334,192)"/>
<path d="M0 0 C0.66 0.99 1.32 1.98 2 3 C0.68 4.32 -0.64 5.64 -2 7 C-2 6.34 -2 5.68 -2 5 C-2.66 5 -3.32 5 -4 5 C-3 2 -3 2 0 0 Z " fill="#D3B78B" transform="translate(374,133)"/>
<path d="M0 0 C-1.45537568 0.83848804 -2.91440373 1.67063934 -4.375 2.5 C-5.59316406 3.19609375 -5.59316406 3.19609375 -6.8359375 3.90625 C-9 5 -9 5 -11 5 C-10.67 4.01 -10.34 3.02 -10 2 C-8.68 2 -7.36 2 -6 2 C-6 1.34 -6 0.68 -6 0 C-3.50907189 -1.24546405 -2.58919267 -0.7767578 0 0 Z " fill="#606F8C" transform="translate(315,365)"/>
<path d="M0 0 C2.31 0 4.62 0 7 0 C7.66 1.65 8.32 3.3 9 5 C5.9168649 3.80100302 2.93720508 2.52299523 0 1 C0 0.67 0 0.34 0 0 Z " fill="#526885" transform="translate(149,343)"/>
<path d="M0 0 C2.25245881 2.68841859 3.88213958 4.64641875 5 8 C4.34 8.66 3.68 9.32 3 10 C3 9.01 3 8.02 3 7 C2.01 7 1.02 7 0 7 C0 4.69 0 2.38 0 0 Z " fill="#E19146" transform="translate(97,260)"/>
<path d="M0 0 C0.99 0.495 0.99 0.495 2 1 C2 1.66 2 2.32 2 3 C3.32 3.33 4.64 3.66 6 4 C5.67 4.66 5.34 5.32 5 6 C4.34 5.67 3.68 5.34 3 5 C2.67 5.99 2.34 6.98 2 8 C0.23537317 4.91190305 0 3.76687864 0 0 Z " fill="#EA8F33" transform="translate(97,256)"/>
<path d="M0 0 C0.66 0.66 1.32 1.32 2 2 C-3.625 6 -3.625 6 -7 6 C-7 5.34 -7 4.68 -7 4 C-6.01 4 -5.02 4 -4 4 C-4 3.34 -4 2.68 -4 2 C-2.68 1.34 -1.36 0.68 0 0 Z " fill="#536383" transform="translate(172,194)"/>
<path d="M0 0 C4.7517398 0.43197635 6.92000054 1.32769295 10 5 C5.75354935 5 3.61475228 3.18249194 0 1 C0 0.67 0 0.34 0 0 Z " fill="#62748D" transform="translate(277,167)"/>
<path d="M0 0 C0 0.66 0 1.32 0 2 C-0.66 2 -1.32 2 -2 2 C-2.33 3.32 -2.66 4.64 -3 6 C-4.65 5.67 -6.3 5.34 -8 5 C-3.22727273 0 -3.22727273 0 0 0 Z " fill="#506786" transform="translate(242,135)"/>
<path d="M0 0 C0.33 0.99 0.66 1.98 1 3 C-3.95 4.485 -3.95 4.485 -9 6 C-6.07175348 3.07175348 -3.7020007 1.72760033 0 0 Z " fill="#617594" transform="translate(289,357)"/>
<path d="M0 0 C2 2 2 2 2 6 C-0.02045442 5.39816251 -2.02111039 4.72693904 -4 4 C-4.33 3.34 -4.66 2.68 -5 2 C-3.68 2 -2.36 2 -1 2 C-0.67 1.34 -0.34 0.68 0 0 Z " fill="#445F7F" transform="translate(163,346)"/>
<path d="M0 0 C1.32 0 2.64 0 4 0 C4 0.66 4 1.32 4 2 C6.97 2.495 6.97 2.495 10 3 C8.02 3.99 8.02 3.99 6 5 C3.98079663 3.69593116 1.98075027 2.36176581 0 1 C0 0.67 0 0.34 0 0 Z " fill="#536887" transform="translate(194,340)"/>
<path d="M0 0 C0.99 0 1.98 0 3 0 C2.3125 1.9375 2.3125 1.9375 1 4 C-1.625 4.75 -1.625 4.75 -4 5 C-2.1875 2.5 -2.1875 2.5 0 0 Z " fill="#576686" transform="translate(262,255)"/>
<path d="M0 0 C0.66 0.33 1.32 0.66 2 1 C1 4 1 4 -2 6 C-4.1875 5.625 -4.1875 5.625 -6 5 C-4.02 3.35 -2.04 1.7 0 0 Z " fill="#E2AA70" transform="translate(295,200)"/>
<path d="M0 0 C0.99 0.33 1.98 0.66 3 1 C2.67 2.65 2.34 4.3 2 6 C-0.475 5.01 -0.475 5.01 -3 4 C-2.01 2.68 -1.02 1.36 0 0 Z " fill="#213C65" transform="translate(172,175)"/>
<path d="M0 0 C0.66 0.33 1.32 0.66 2 1 C0.71937515 2.7074998 -0.61767557 4.37373596 -2 6 C-2.66 6 -3.32 6 -4 6 C-4 4.68 -4 3.36 -4 2 C-2.125 0.9375 -2.125 0.9375 0 0 Z " fill="#B99C73" transform="translate(379,129)"/>
<path d="M0 0 C2.475 0.495 2.475 0.495 5 1 C5 2.32 5 3.64 5 5 C3.68 4.67 2.36 4.34 1 4 C0.67 2.68 0.34 1.36 0 0 Z " fill="#1D3E6A" transform="translate(304,362)"/>
<path d="M0 0 C2.72869407 0.03287583 5.2966618 0.56397771 8 1 C5.24075815 2.80411967 4.11027897 3.0127245 0.75 2.625 C-0.1575 2.41875 -1.065 2.2125 -2 2 C-1.34 1.34 -0.68 0.68 0 0 Z " fill="#E7AA68" transform="translate(160,297)"/>
<path d="M0 0 C2.31 0 4.62 0 7 0 C5.71034824 1.37562854 4.37310707 2.70766393 3 4 C2.34 4 1.68 4 1 4 C0.67 2.68 0.34 1.36 0 0 Z " fill="#E09E58" transform="translate(224,266)"/>
<path d="M0 0 C0.66 0.33 1.32 0.66 2 1 C1.25 2.9375 1.25 2.9375 0 5 C-2.125 5.75 -2.125 5.75 -4 6 C-4.33 5.34 -4.66 4.68 -5 4 C-3.35 2.68 -1.7 1.36 0 0 Z " fill="#455C7F" transform="translate(256,260)"/>
<path d="M0 0 C-4.75 4 -4.75 4 -7 4 C-6.6875 2.0625 -6.6875 2.0625 -6 0 C-3 -1 -3 -1 0 0 Z " fill="#536786" transform="translate(199,181)"/>
<path d="M0 0 C2.31 0.33 4.62 0.66 7 1 C7.33 2.32 7.66 3.64 8 5 C6.68 4.67 5.36 4.34 4 4 C4 3.34 4 2.68 4 2 C2.68 1.34 1.36 0.68 0 0 Z " fill="#677792" transform="translate(291,175)"/>
<path d="M0 0 C0.66 0.33 1.32 0.66 2 1 C1.67 1.66 1.34 2.32 1 3 C0.34 3 -0.32 3 -1 3 C-1.66 4.32 -2.32 5.64 -3 7 C-3.66 5.68 -4.32 4.36 -5 3 C-2.625 1.4375 -2.625 1.4375 0 0 Z " fill="#4C5F85" transform="translate(178,171)"/>
<path d="M0 0 C1.875 0.125 1.875 0.125 4 1 C5.25 4.0625 5.25 4.0625 6 7 C3.525 6.01 3.525 6.01 1 5 C1 4.01 1 3.02 1 2 C0.67 1.34 0.34 0.68 0 0 Z " fill="#4B6286" transform="translate(264,156)"/>
<path d="M0 0 C0.99 0 1.98 0 3 0 C2.67 2.31 2.34 4.62 2 7 C-0.13324818 4.86675182 -0.53238345 3.8992226 -1 1 C-0.67 0.67 -0.34 0.34 0 0 Z " fill="#DF9450" transform="translate(391,130)"/>
<path d="M0 0 C1.32 0.66 2.64 1.32 4 2 C2.02 2.99 0.04 3.98 -2 5 C-2.66 4.34 -3.32 3.68 -4 3 C-3.01 3 -2.02 3 -1 3 C-0.67 2.01 -0.34 1.02 0 0 Z " fill="#556686" transform="translate(281,380)"/>
<path d="M0 0 C0 0.66 0 1.32 0 2 C-2.5614657 4.29648649 -3.47967572 5 -7 5 C-6 2 -6 2 -4.0625 0.8125 C-2 0 -2 0 0 0 Z " fill="#1F3C68" transform="translate(286,361)"/>
<path d="M0 0 C2.31 0.66 4.62 1.32 7 2 C6.34 2.66 5.68 3.32 5 4 C4.01 4 3.02 4 2 4 C2 3.34 2 2.68 2 2 C1.34 2 0.68 2 0 2 C0 1.34 0 0.68 0 0 Z " fill="#3C567A" transform="translate(168,334)"/>
<path d="M0 0 C1.98 1.65 3.96 3.3 6 5 C5.34 5.66 4.68 6.32 4 7 C3.67 6.01 3.34 5.02 3 4 C0.98491642 3.26676204 0.98491642 3.26676204 -1 3 C-0.67 2.01 -0.34 1.02 0 0 Z " fill="#DFA363" transform="translate(100,256)"/>
<path d="M0 0 C0 0.66 0 1.32 0 2 C-0.66 2 -1.32 2 -2 2 C-2 2.99 -2 3.98 -2 5 C-3.65 4.67 -5.3 4.34 -7 4 C-3.17391304 0 -3.17391304 0 0 0 Z " fill="#E8AD6E" transform="translate(212,255)"/>
<path d="M0 0 C1.32 0.66 2.64 1.32 4 2 C3.01 2 2.02 2 1 2 C0.67 2.99 0.34 3.98 0 5 C-0.99 5 -1.98 5 -3 5 C-1.125 1.125 -1.125 1.125 0 0 Z " fill="#44597C" transform="translate(287,235)"/>
<path d="M0 0 C0 0.99 0 1.98 0 3 C-1.8125 4.75 -1.8125 4.75 -4 6 C-4.99 5.67 -5.98 5.34 -7 5 C-2.25 1.125 -2.25 1.125 0 0 Z " fill="#DCA66F" transform="translate(304,194)"/>
<path d="M0 0 C2.25 0.25 2.25 0.25 4 1 C2.02 2.32 0.04 3.64 -2 5 C-2.66 4.67 -3.32 4.34 -4 4 C-2.25 1.9375 -2.25 1.9375 0 0 Z " fill="#5F7590" transform="translate(179,190)"/>
<path d="M0 0 C-0.33 0.99 -0.66 1.98 -1 3 C-2.98 3.33 -4.96 3.66 -7 4 C-3.375 0 -3.375 0 0 0 Z " fill="#596B8C" transform="translate(165,180)"/>
<path d="M0 0 C1.485 0.99 1.485 0.99 3 2 C3.66 1.34 4.32 0.68 5 0 C4.67 1.65 4.34 3.3 4 5 C3.01 5.33 2.02 5.66 1 6 C0.67 4.02 0.34 2.04 0 0 Z " fill="#D5B187" transform="translate(387,137)"/>
<path d="M0 0 C4.875 1.75 4.875 1.75 6 4 C3.625 4.625 3.625 4.625 1 5 C0.34 4.34 -0.32 3.68 -1 3 C-0.34 3 0.32 3 1 3 C0.67 2.01 0.34 1.02 0 0 Z " fill="#556B90" transform="translate(260,136)"/>
</svg>
